<svg width="1584" height="396" viewBox="0 0 1584 396" fill="none" xmlns="http://www.w3.org/2000/svg">
<rect width="1584" height="396" fill="#F5F5F5"/>
<g id="Awesome banner" clip-path="url(#clip0_0_1)">
<rect width="1584" height="396" fill="url(#paint0_linear_0_1)"/>
<ellipse id="Ellipse 2" cx="323" cy="64" rx="285" ry="288" fill="url(#paint1_linear_0_1)" fill-opacity="0.1"/>
<g id="copyright">
<path d="M75.95 334.52L72.30 334.52L72.30 311.16L77.20 311.16L83.70 330.04Q83.60 329.02 83.50 327.62Q83.41 326.23 83.33 324.79Q83.25 323.35 83.25 322.23L83.25 311.16L86.90 311.16L86.90 334.52L82 334.52L75.57 315.64Q75.63 316.57 75.73 317.88Q75.82 319.19 75.89 320.57Q75.95 321.94 75.95 323.10L75.95 334.52M98.80 334.84Q96.46 334.84 94.67 333.96Q92.88 333.08 91.89 331.53Q90.90 329.98 90.90 327.93Q90.90 325.78 92.13 324.18Q93.36 322.58 95.34 322.17L95.34 322.10Q93.65 321.75 92.61 320.38Q91.57 319 91.57 317.11Q91.57 315.26 92.48 313.85Q93.39 312.44 95.02 311.64Q96.66 310.84 98.80 310.84Q100.94 310.84 102.59 311.64Q104.24 312.44 105.15 313.85Q106.06 315.26 106.06 317.11Q106.06 319 105.01 320.38Q103.95 321.75 102.26 322.10L102.26 322.17Q104.24 322.58 105.47 324.18Q106.70 325.78 106.70 327.93Q106.70 329.98 105.71 331.53Q104.72 333.08 102.93 333.96Q101.14 334.84 98.80 334.84M98.80 320.73Q100.30 320.73 101.23 319.82Q102.16 318.90 102.16 317.46Q102.16 315.99 101.23 315.08Q100.30 314.17 98.80 314.17Q97.30 314.17 96.37 315.08Q95.44 315.99 95.44 317.46Q95.44 318.90 96.37 319.82Q97.30 320.73 98.80 320.73M98.80 331.45Q100.56 331.45 101.68 330.42Q102.80 329.40 102.80 327.74Q102.80 326.04 101.68 325Q100.56 323.96 98.80 323.96Q97.04 323.96 95.92 325Q94.80 326.04 94.80 327.74Q94.80 329.40 95.92 330.42Q97.04 331.45 98.80 331.45M114.35 334.52L110.70 334.52L110.70 311.16L115.60 311.16L122.10 330.04Q122 329.02 121.90 327.62Q121.81 326.23 121.73 324.79Q121.65 323.35 121.65 322.23L121.65 311.16L125.30 311.16L125.30 334.52L120.40 334.52L113.97 315.64Q114.03 316.57 114.13 317.88Q114.22 319.19 114.29 320.57Q114.35 321.94 114.35 323.10" fill="white" fill-opacity="0.9"/>
<path d="M161.48 325.24L151.24 325.24L151.24 322.68L161.48 322.68" fill="white" fill-opacity="0.9"/>
<path d="M195.02 334.84Q191.82 334.84 189.96 333.05Q188.11 331.26 188.11 328.12L188.11 317.56Q188.11 314.42 189.96 312.63Q191.82 310.84 195.02 310.84Q198.15 310.84 200.01 312.65Q201.87 314.46 201.87 317.56L198.99 317.56Q198.99 315.58 197.95 314.50Q196.91 313.43 195.02 313.43Q193.13 313.43 192.06 314.50Q190.99 315.58 190.99 317.56L190.99 328.12Q190.99 330.10 192.06 331.18Q193.13 332.25 195.02 332.25Q196.91 332.25 197.95 331.18Q198.99 330.10 198.99 328.12L201.87 328.12Q201.87 331.22 200.01 333.03Q198.15 334.84 195.02 334.84" fill="white" fill-opacity="0.9"/>
<path d="M213.96 334.84Q210.83 334.84 209 333.02Q207.18 331.19 207.18 327.80L207.18 317.88Q207.18 314.49 209 312.66Q210.83 310.84 213.96 310.84Q217.10 310.84 218.92 312.66Q220.75 314.49 220.75 317.85L220.75 327.80Q220.75 331.19 218.92 333.02Q217.10 334.84 213.96 334.84M213.96 332.25Q215.85 332.25 216.86 331.18Q217.87 330.10 217.87 328.12L217.87 317.56Q217.87 315.58 216.86 314.50Q215.85 313.43 213.96 313.43Q212.11 313.43 211.08 314.50Q210.06 315.58 210.06 317.56L210.06 328.12Q210.06 330.10 211.08 331.18Q212.11 332.25 213.96 332.25" fill="white" fill-opacity="0.9"/>
<path d="M228.65 334.52L225.87 334.52L225.87 311.16L230.12 311.16L233.10 321.27L236.20 311.16L240.46 311.16L240.46 334.52L237.67 334.52L237.67 323.48Q237.67 321.91 237.72 319.88Q237.77 317.85 237.87 315.77Q237.96 313.69 238.09 312.02L234.31 324.09L231.82 324.09L228.20 312.31Q228.46 314.68 228.55 317.50Q228.65 320.31 228.65 323.48" fill="white" fill-opacity="0.9"/>
<path d="M247.85 334.52L245.07 334.52L245.07 311.16L249.32 311.16L252.30 321.27L255.40 311.16L259.66 311.16L259.66 334.52L256.87 334.52L256.87 323.48Q256.87 321.91 256.92 319.88Q256.97 317.85 257.07 315.77Q257.16 313.69 257.29 312.02L253.51 324.09L251.02 324.09L247.40 312.31Q247.66 314.68 247.75 317.50Q247.85 320.31 247.85 323.48" fill="white" fill-opacity="0.9"/>
<path d="M271.56 334.84Q268.30 334.84 266.57 333.03Q264.84 331.22 264.84 328.12L264.84 311.16L267.72 311.16L267.72 328.12Q267.72 330.04 268.67 331.16Q269.61 332.28 271.56 332.28Q273.48 332.28 274.44 331.16Q275.40 330.04 275.40 328.12L275.40 311.16L278.28 311.16L278.28 328.12Q278.28 331.26 276.57 333.05Q274.86 334.84 271.56 334.84" fill="white" fill-opacity="0.9"/>
<path d="M286.83 334.52L284.04 334.52L284.04 311.16L287.88 311.16L295.02 331.16Q294.95 330.36 294.87 329.19Q294.79 328.02 294.75 326.73Q294.70 325.43 294.70 324.28L294.70 311.16L297.48 311.16L297.48 334.52L293.64 334.52L286.54 314.52Q286.60 315.29 286.67 316.46Q286.73 317.62 286.78 318.92Q286.83 320.22 286.83 321.40" fill="white" fill-opacity="0.9"/>
<path d="M316.20 334.52L303.72 334.52L303.72 331.90L308.49 331.90L308.49 313.78L303.72 313.78L303.72 311.16L316.20 311.16L316.20 313.78L311.43 313.78L311.43 331.90L316.20 331.90" fill="white" fill-opacity="0.9"/>
<path d="M330.60 334.52L327.72 334.52L327.72 313.78L321.32 313.78L321.32 311.16L337 311.16L337 313.78L330.60 313.78" fill="white" fill-opacity="0.9"/>
<path d="M349.80 334.52L346.92 334.52L346.92 325.78L339.88 311.16L342.95 311.16L347.50 320.76Q347.88 321.56 348.11 322.12Q348.33 322.68 348.39 322.94Q348.46 322.68 348.70 322.12Q348.94 321.56 349.32 320.76L353.87 311.16L356.84 311.16L349.80 325.78" fill="white" fill-opacity="0.9"/>
<path d="M382.83 334.52L380.04 334.52L380.04 311.16L383.88 311.16L391.02 331.16Q390.95 330.36 390.87 329.19Q390.79 328.02 390.75 326.73Q390.70 325.43 390.70 324.28L390.70 311.16L393.48 311.16L393.48 334.52L389.64 334.52L382.54 314.52Q382.60 315.29 382.67 316.46Q382.73 317.62 382.78 318.92Q382.83 320.22 382.83 321.40" fill="white" fill-opacity="0.9"/>
<path d="M405.96 334.84Q402.83 334.84 401 333.02Q399.18 331.19 399.18 327.80L399.18 317.88Q399.18 314.49 401 312.66Q402.83 310.84 405.96 310.84Q409.10 310.84 410.92 312.66Q412.75 314.49 412.75 317.85L412.75 327.80Q412.75 331.19 410.92 333.02Q409.10 334.84 405.96 334.84M405.96 332.25Q407.85 332.25 408.86 331.18Q409.87 330.10 409.87 328.12L409.87 317.56Q409.87 315.58 408.86 314.50Q407.85 313.43 405.96 313.43Q404.11 313.43 403.08 314.50Q402.06 315.58 402.06 317.56L402.06 328.12Q402.06 330.10 403.08 331.18Q404.11 332.25 405.96 332.25" fill="white" fill-opacity="0.9"/>
<path d="M424.55 334.52L418.51 334.52L418.51 311.16L424.55 311.16Q426.83 311.16 428.47 312.02Q430.12 312.89 431.03 314.46Q431.95 316.02 431.95 318.17L431.95 327.48Q431.95 329.62 431.03 331.21Q430.12 332.79 428.47 333.66Q426.83 334.52 424.55 334.52M421.39 313.72L421.39 331.96L424.55 331.96Q426.67 331.96 427.87 330.78Q429.07 329.59 429.07 327.48L429.07 318.17Q429.07 316.09 427.87 314.90Q426.67 313.72 424.55 313.72" fill="white" fill-opacity="0.9"/>
<path d="M451.40 334.52L437.96 334.52L437.96 311.16L451.40 311.16L451.40 313.78L440.81 313.78L440.81 321.02L450.28 321.02L450.28 323.58L440.81 323.58L440.81 331.90L451.40 331.90" fill="white" fill-opacity="0.9"/>
<path d="M463.69 334.84Q460.30 334.84 458.28 333.05Q456.27 331.26 456.27 328.12L459.15 328.12Q459.15 330.07 460.39 331.18Q461.64 332.28 463.69 332.28Q465.67 332.28 466.86 331.13Q468.04 329.98 468.04 328.12Q468.04 326.71 467.29 325.67Q466.54 324.63 465.13 324.25L461.58 323.26Q459.37 322.62 458.11 320.97Q456.84 319.32 456.84 317.08Q456.84 315.22 457.67 313.82Q458.51 312.41 460.01 311.62Q461.51 310.84 463.47 310.84Q465.45 310.84 466.97 311.62Q468.49 312.41 469.35 313.80Q470.22 315.19 470.22 317.02L467.34 317.02Q467.34 315.42 466.25 314.41Q465.16 313.40 463.47 313.40Q461.77 313.40 460.71 314.41Q459.66 315.42 459.66 317.02Q459.66 318.30 460.35 319.21Q461.03 320.12 462.28 320.47L465.93 321.50Q468.27 322.14 469.56 323.91Q470.86 325.69 470.86 328.12Q470.86 331.19 468.91 333.02Q466.95 334.84 463.69 334.84" fill="white" fill-opacity="0.9"/>
</g>
<path d="M73.41 197.64L71.20 197.64L75.76 180.12L78.66 180.12L83.20 197.64L81.02 197.64L79.86 192.98L74.56 192.98L73.41 197.64M76.34 185.74L74.99 191.16L79.41 191.16L78.06 185.76Q77.68 184.22 77.46 183.19Q77.25 182.16 77.20 181.85Q77.15 182.16 76.94 183.19Q76.72 184.22 76.34 185.74" fill="white" fill-opacity="0.7"/>
<path d="M90.83 197.88Q88.86 197.88 87.68 196.56Q86.49 195.24 86.49 192.98L86.49 189.12Q86.49 186.84 87.66 185.52Q88.84 184.20 90.83 184.20Q92.32 184.20 93.29 184.94Q94.26 185.69 94.46 186.96L94.48 186.96L94.43 183.96L94.43 180.12L96.59 180.12L96.59 197.64L94.43 197.64L94.43 195.12L94.41 195.12Q94.24 196.42 93.28 197.15Q92.32 197.88 90.83 197.88M91.55 196.01Q92.90 196.01 93.66 195.17Q94.43 194.33 94.43 192.84L94.43 189.24Q94.43 187.75 93.66 186.91Q92.90 186.07 91.55 186.07Q90.18 186.07 89.42 186.78Q88.65 187.49 88.65 189.12L88.65 192.96Q88.65 194.57 89.42 195.29Q90.18 196.01 91.55 196.01" fill="white" fill-opacity="0.7"/>
<path d="M105.33 201.96L103.07 201.96L105.02 196.82L100.10 184.44L102.42 184.44L105.54 192.60Q105.74 193.08 105.90 193.61Q106.07 194.14 106.14 194.52Q106.22 194.14 106.38 193.61Q106.55 193.08 106.72 192.60L109.62 184.44L111.90 184.44" fill="white" fill-opacity="0.7"/>
<path d="M120.40 197.88Q118.07 197.88 116.64 196.48Q115.22 195.07 115.22 192.60L115.22 189.48Q115.22 187.01 116.64 185.60Q118.07 184.20 120.40 184.20Q121.96 184.20 123.12 184.82Q124.29 185.45 124.94 186.58Q125.58 187.70 125.58 189.24L125.58 191.59L117.33 191.59L117.33 192.84Q117.33 194.30 118.17 195.16Q119.01 196.01 120.40 196.01Q121.60 196.01 122.38 195.54Q123.16 195.07 123.33 194.28L125.49 194.28Q125.27 195.94 123.88 196.91Q122.49 197.88 120.40 197.88M117.33 189.24L117.33 189.91L123.47 189.91L123.47 189.24Q123.47 187.68 122.67 186.83Q121.86 185.98 120.40 185.98Q118.94 185.98 118.13 186.83Q117.33 187.68 117.33 189.24" fill="white" fill-opacity="0.7"/>
<path d="M131.97 197.64L129.81 197.64L129.81 184.44L131.97 184.44L131.97 186.96L131.99 186.96Q132.16 185.64 133.07 184.92Q133.98 184.20 135.50 184.20Q137.49 184.20 138.66 185.42Q139.84 186.65 139.84 188.76L139.84 197.64L137.68 197.64L137.68 189.14Q137.68 187.63 136.92 186.83Q136.17 186.02 134.87 186.02Q133.53 186.02 132.75 186.86Q131.97 187.70 131.97 189.24" fill="white" fill-opacity="0.7"/>
<path d="M163.14 197.64L158.61 197.64L158.61 180.12L163.14 180.12Q164.85 180.12 166.08 180.77Q167.32 181.42 168 182.59Q168.69 183.77 168.69 185.38L168.69 192.36Q168.69 193.97 168 195.16Q167.32 196.34 166.08 196.99Q164.85 197.64 163.14 197.64M160.77 182.04L160.77 195.72L163.14 195.72Q164.73 195.72 165.63 194.83Q166.53 193.94 166.53 192.36L166.53 185.38Q166.53 183.82 165.63 182.93Q164.73 182.04 163.14 182.04" fill="white" fill-opacity="0.7"/>
<path d="M176.85 197.88Q174.81 197.88 173.61 196.74Q172.41 195.60 172.41 193.75Q172.41 192.53 172.96 191.62Q173.51 190.70 174.50 190.19Q175.48 189.67 176.75 189.67L180.83 189.67L180.83 188.64Q180.83 186.07 178.02 186.07Q176.78 186.07 176.01 186.53Q175.24 186.98 175.19 187.80L173.03 187.80Q173.15 186.24 174.48 185.22Q175.82 184.20 178.02 184.20Q180.42 184.20 181.71 185.35Q182.99 186.50 182.99 188.57L182.99 197.64L180.86 197.64L180.86 195.24L180.81 195.24Q180.62 196.46 179.58 197.17Q178.55 197.88 176.85 197.88M177.38 196.06Q178.96 196.06 179.90 195.29Q180.83 194.52 180.83 193.20L180.83 191.35L176.99 191.35Q175.94 191.35 175.28 191.99Q174.62 192.62 174.62 193.68Q174.62 194.78 175.35 195.42Q176.08 196.06 177.38 196.06" fill="white" fill-opacity="0.7"/>
<path d="M197.56 197.64L193.72 197.64Q192.09 197.64 191.10 196.69Q190.12 195.74 190.12 194.16L190.12 186.41L186.33 186.41L186.33 184.44L190.12 184.44L190.12 180.72L192.28 180.72L192.28 184.44L197.68 184.44L197.68 186.41L192.28 186.41L192.28 194.16Q192.28 194.83 192.68 195.25Q193.07 195.67 193.72 195.67L197.56 195.67" fill="white" fill-opacity="0.7"/>
<path d="M205.65 197.88Q203.61 197.88 202.41 196.74Q201.21 195.60 201.21 193.75Q201.21 192.53 201.76 191.62Q202.31 190.70 203.30 190.19Q204.28 189.67 205.55 189.67L209.63 189.67L209.63 188.64Q209.63 186.07 206.82 186.07Q205.58 186.07 204.81 186.53Q204.04 186.98 203.99 187.80L201.83 187.80Q201.95 186.24 203.28 185.22Q204.62 184.20 206.82 184.20Q209.22 184.20 210.51 185.35Q211.79 186.50 211.79 188.57L211.79 197.64L209.66 197.64L209.66 195.24L209.61 195.24Q209.42 196.46 208.38 197.17Q207.35 197.88 205.65 197.88M206.18 196.06Q207.76 196.06 208.70 195.29Q209.63 194.52 209.63 193.20L209.63 191.35L205.79 191.35Q204.74 191.35 204.08 191.99Q203.42 192.62 203.42 193.68Q203.42 194.78 204.15 195.42Q204.88 196.06 206.18 196.06" fill="white" fill-opacity="0.7"/>
<path d="M232.77 197.64L230.61 197.64L230.61 180.12L236.25 180.12Q238.70 180.12 240.15 181.52Q241.60 182.93 241.60 185.28Q241.60 187.63 240.15 189.04Q238.70 190.44 236.25 190.44L232.77 190.44L232.77 197.64M232.77 182.06L232.77 188.50L236.25 188.50Q237.66 188.50 238.52 187.62Q239.37 186.74 239.37 185.28Q239.37 183.79 238.52 182.93Q237.66 182.06 236.25 182.06" fill="white" fill-opacity="0.7"/>
<path d="M247.65 197.64L245.49 197.64L245.49 184.44L247.65 184.44L247.65 186.96L247.70 186.96Q247.86 185.69 248.78 184.94Q249.69 184.20 251.22 184.20Q253.29 184.20 254.40 185.44Q255.52 186.67 255.52 188.95L255.52 190.08L253.36 190.08L253.36 188.95Q253.36 186.07 250.55 186.07Q249.14 186.07 248.39 186.89Q247.65 187.70 247.65 189.24" fill="white" fill-opacity="0.7"/>
<path d="M264.40 197.83Q262.02 197.83 260.62 196.44Q259.22 195.05 259.22 192.55L259.22 189.53Q259.22 187.01 260.61 185.63QNaN 184.25 264.40 184.25Q266.80 184.25 268.19 185.63Q269.58 187.01 269.58 189.53L269.58 192.55Q269.58 195.05 268.18 196.44Q266.78 197.83 264.40 197.83M264.40 195.91Q265.82 195.91 266.62 195.12Q267.42 194.33 267.42 192.79L267.42 189.29Q267.42 187.75 266.62 186.96Q265.82 186.17 264.40 186.17Q263.01 186.17 262.19 186.96Q261.38 187.75 261.38 189.29L261.38 192.79Q261.38 194.33 262.19 195.12Q263.01 195.91 264.40 195.91" fill="white" fill-opacity="0.7"/>
<path d="M283.96 197.64L280.12 197.64Q278.49 197.64 277.50 196.69Q276.52 195.74 276.52 194.16L276.52 186.41L272.73 186.41L272.73 184.44L276.52 184.44L276.52 180.72L278.68 180.72L278.68 184.44L284.08 184.44L284.08 186.41L278.68 186.41L278.68 194.16Q278.68 194.83 279.08 195.25Q279.47 195.67 280.12 195.67L283.96 195.67" fill="white" fill-opacity="0.7"/>
<path d="M293.20 197.88Q290.87 197.88 289.44 196.48Q288.02 195.07 288.02 192.60L288.02 189.48Q288.02 187.01 289.44 185.60Q290.87 184.20 293.20 184.20Q294.76 184.20 295.92 184.82Q297.09 185.45 297.74 186.58Q298.38 187.70 298.38 189.24L298.38 191.59L290.13 191.59L290.13 192.84Q290.13 194.30 290.97 195.16Q291.81 196.01 293.20 196.01Q294.40 196.01 295.18 195.54Q295.96 195.07 296.13 194.28L298.29 194.28Q298.07 195.94 296.68 196.91Q295.29 197.88 293.20 197.88M290.13 189.24L290.13 189.91L296.27 189.91L296.27 189.24Q296.27 187.68 295.47 186.83Q294.66 185.98 293.20 185.98Q291.74 185.98 290.93 186.83Q290.13 187.68 290.13 189.24" fill="white" fill-opacity="0.7"/>
<path d="M307.79 197.88Q305.39 197.88 303.95 196.54Q302.51 195.19 302.51 192.84L302.51 189.24Q302.51 186.89 303.95 185.54Q305.39 184.20 307.79 184.20Q310.07 184.20 311.48 185.42Q312.88 186.65 312.95 188.76L310.79 188.76Q310.72 187.49 309.93 186.80Q309.14 186.12 307.79 186.12Q306.38 186.12 305.52 186.92Q304.67 187.73 304.67 189.22L304.67 192.84Q304.67 194.33 305.52 195.14Q306.38 195.96 307.79 195.96Q309.14 195.96 309.93 195.26Q310.72 194.57 310.79 193.32L312.95 193.32Q312.88 195.43 311.48 196.66Q310.07 197.88 307.79 197.88" fill="white" fill-opacity="0.7"/>
<path d="M327.16 197.64L323.32 197.64Q321.69 197.64 320.70 196.69Q319.72 195.74 319.72 194.16L319.72 186.41L315.93 186.41L315.93 184.44L319.72 184.44L319.72 180.72L321.88 180.72L321.88 184.44L327.28 184.44L327.28 186.41L321.88 186.41L321.88 194.16Q321.88 194.83 322.28 195.25Q322.67 195.67 323.32 195.67L327.16 195.67" fill="white" fill-opacity="0.7"/>
<path d="M342.52 197.64L331.24 197.64L331.24 195.67L335.92 195.67L335.92 186.41L331.72 186.41L331.72 184.44L338.08 184.44L338.08 195.67L342.52 195.67L342.52 197.64M336.76 182.06Q335.97 182.06 335.51 181.66Q335.06 181.25 335.06 180.55Q335.06 179.83 335.51 179.41Q335.97 178.99 336.76 178.99Q337.55 178.99 338.01 179.41Q338.46 179.83 338.46 180.55Q338.46 181.25 338.01 181.66Q337.55 182.06 336.76 182.06" fill="white" fill-opacity="0.7"/>
<path d="M350.80 197.83Q348.42 197.83 347.02 196.44Q345.62 195.05 345.62 192.55L345.62 189.53Q345.62 187.01 347.01 185.63Q348.40 184.25 350.80 184.25Q353.20 184.25 354.59 185.63Q355.98 187.01 355.98 189.53L355.98 192.55Q355.98 195.05 354.58 196.44Q353.18 197.83 350.80 197.83M350.80 195.91Q352.22 195.91 353.02 195.12Q353.82 194.33 353.82 192.79L353.82 189.29Q353.82 187.75 353.02 186.96Q352.22 186.17 350.80 186.17Q349.41 186.17 348.59 186.96Q347.78 187.75 347.78 189.29L347.78 192.79Q347.78 194.33 348.59 195.12Q349.41 195.91 350.80 195.91" fill="white" fill-opacity="0.7"/>
<path d="M362.37 197.64L360.21 197.64L360.21 184.44L362.37 184.44L362.37 186.96L362.39 186.96Q362.56 185.64 363.47 184.92Q364.38 184.20 365.90 184.20Q367.89 184.20 369.06 185.42Q370.24 186.65 370.24 188.76L370.24 197.64L368.08 197.64L368.08 189.14Q368.08 187.63 367.32 186.83Q366.57 186.02 365.27 186.02Q363.93 186.02 363.15 186.86Q362.37 187.70 362.37 189.24" fill="white" fill-opacity="0.7"/>
<path d="M390.21 197.64L388 197.64L392.56 180.12L395.46 180.12L400 197.64L397.82 197.64L396.66 192.98L391.36 192.98L390.21 197.64M393.14 185.74L391.79 191.16L396.21 191.16L394.86 185.76Q394.48 184.22 394.26 183.19Q394.05 182.16 394 181.85Q393.95 182.16 393.74 183.19Q393.52 184.22 393.14 185.74" fill="white" fill-opacity="0.7"/>
<path d="M405.57 197.64L403.41 197.64L403.41 180.12L409.05 180.12Q411.50 180.12 412.95 181.52Q414.40 182.93 414.40 185.28Q414.40 187.63 412.95 189.04Q411.50 190.44 409.05 190.44L405.57 190.44L405.57 197.64M405.57 182.06L405.57 188.50L409.05 188.50Q410.46 188.50 411.32 187.62Q412.17 186.74 412.17 185.28Q412.17 183.79 411.32 182.93Q410.46 182.06 409.05 182.06" fill="white" fill-opacity="0.7"/>
<path d="M427.48 197.64L418.12 197.64L418.12 195.67L421.70 195.67L421.70 182.09L418.12 182.09L418.12 180.12L427.48 180.12L427.48 182.09L423.90 182.09L423.90 195.67L427.48 195.67" fill="white" fill-opacity="0.7"/>
<path d="M451.60 197.88Q449.27 197.88 447.84 196.48Q446.42 195.07 446.42 192.60L446.42 189.48Q446.42 187.01 447.84 185.60Q449.27 184.20 451.60 184.20Q453.16 184.20 454.32 184.82Q455.49 185.45 456.14 186.58Q456.78 187.70 456.78 189.24L456.78 191.59L448.53 191.59L448.53 192.84Q448.53 194.30 449.37 195.16Q450.21 196.01 451.60 196.01Q452.80 196.01 453.58 195.54Q454.36 195.07 454.53 194.28L456.69 194.28Q456.47 195.94 455.08 196.91Q453.69 197.88 451.60 197.88M448.53 189.24L448.53 189.91L454.67 189.91L454.67 189.24Q454.67 187.68 453.87 186.83Q453.06 185.98 451.60 185.98Q450.14 185.98 449.33 186.83Q448.53 187.68 448.53 189.24" fill="white" fill-opacity="0.7"/>
<path d="M463.17 197.64L461.01 197.64L461.01 184.44L463.17 184.44L463.17 186.96L463.19 186.96Q463.36 185.64 464.27 184.92Q465.18 184.20 466.70 184.20Q468.69 184.20 469.86 185.42Q471.04 186.65 471.04 188.76L471.04 197.64L468.88 197.64L468.88 189.14Q468.88 187.63 468.12 186.83Q467.37 186.02 466.07 186.02Q464.73 186.02 463.95 186.86Q463.17 187.70 463.17 189.24" fill="white" fill-opacity="0.7"/>
<path d="M479.25 197.88Q477.21 197.88 476.01 196.74Q474.81 195.60 474.81 193.75Q474.81 192.53 475.36 191.62Q475.91 190.70 476.90 190.19Q477.88 189.67 479.15 189.67L483.23 189.67L483.23 188.64Q483.23 186.07 480.42 186.07Q479.18 186.07 478.41 186.53Q477.64 186.98 477.59 187.80L475.43 187.80Q475.55 186.24 476.88 185.22Q478.22 184.20 480.42 184.20Q482.82 184.20 484.11 185.35Q485.39 186.50 485.39 188.57L485.39 197.64L483.26 197.64L483.26 195.24L483.21 195.24Q483.02 196.46 481.98 197.17Q480.95 197.88 479.25 197.88M479.78 196.06Q481.36 196.06 482.30 195.29Q483.23 194.52 483.23 193.20L483.23 191.35L479.39 191.35Q478.34 191.35 477.68 191.99Q477.02 192.62 477.02 193.68Q477.02 194.78 477.75 195.42Q478.48 196.06 479.78 196.06" fill="white" fill-opacity="0.7"/>
<path d="M495.57 197.88Q494.08 197.88 493.12 197.15Q492.16 196.42 491.99 195.12L491.97 195.12L491.97 197.64L489.81 197.64L489.81 180.12L491.97 180.12L491.97 183.96L491.92 186.96L491.94 186.96Q492.14 185.69 493.11 184.94Q494.08 184.20 495.57 184.20Q497.56 184.20 498.74 185.52Q499.91 186.84 499.91 189.12L499.91 192.98Q499.91 195.24 498.74 196.56Q497.56 197.88 495.57 197.88M494.85 196.01Q496.22 196.01 496.98 195.29Q497.75 194.57 497.75 192.96L497.75 189.12Q497.75 187.49 496.98 186.78Q496.22 186.07 494.85 186.07Q493.53 186.07 492.75 186.91Q491.97 187.75 491.97 189.24L491.97 192.84Q491.97 194.33 492.75 195.17Q493.53 196.01 494.85 196.01" fill="white" fill-opacity="0.7"/>
<path d="M515.20 197.64L511.12 197.64Q509.37 197.64 508.32 196.62Q507.28 195.60 507.28 193.92L507.28 182.09L502.72 182.09L502.72 180.12L509.44 180.12L509.44 193.92Q509.44 194.74 509.90 195.20Q510.35 195.67 511.12 195.67L515.20 195.67" fill="white" fill-opacity="0.7"/>
<path d="M523.60 197.88Q521.27 197.88 519.84 196.48Q518.42 195.07 518.42 192.60L518.42 189.48Q518.42 187.01 519.84 185.60Q521.27 184.20 523.60 184.20Q525.16 184.20 526.32 184.82Q527.49 185.45 528.14 186.58Q528.78 187.70 528.78 189.24L528.78 191.59L520.53 191.59L520.53 192.84Q520.53 194.30 521.37 195.16Q522.21 196.01 523.60 196.01Q524.80 196.01 525.58 195.54Q526.36 195.07 526.53 194.28L528.69 194.28Q528.47 195.94 527.08 196.91Q525.69 197.88 523.60 197.88M520.53 189.24L520.53 189.91L526.67 189.91L526.67 189.24Q526.67 187.68 525.87 186.83Q525.06 185.98 523.60 185.98Q522.14 185.98 521.33 186.83Q520.53 187.68 520.53 189.24" fill="white" fill-opacity="0.7"/>
<path d="M538.53 197.83L537.47 197.83Q535.26 197.83 534.05 196.84Q532.84 195.84 532.84 194.02L535 194.02Q535 194.93 535.65 195.44Q536.30 195.96 537.47 195.96L538.53 195.96Q539.73 195.96 540.39 195.43Q541.05 194.90 541.05 193.94Q541.05 192.24 539.49 192.02L535.84 191.50Q534.50 191.30 533.75 190.38Q533.01 189.46 533.01 187.94Q533.01 186.22 534.20 185.23Q535.38 184.25 537.47 184.25L538.53 184.25Q540.45 184.25 541.66 185.20Q542.87 186.14 542.97 187.68L540.78 187.68Q540.74 186.98 540.12 186.53Q539.51 186.07 538.53 186.07L537.47 186.07Q536.37 186.07 535.74 186.58Q535.12 187.08 535.12 187.94Q535.12 189.34 536.39 189.53L539.80 190.01Q543.16 190.49 543.16 193.94Q543.16 195.79 541.95 196.81Q540.74 197.83 538.53 197.83" fill="white" fill-opacity="0.7"/>
<path d="M566.90 197.88Q564.50 197.88 563.10 196.54Q561.71 195.19 561.71 192.84L561.71 184.92Q561.71 182.57 563.10 181.22Q564.50 179.88 566.90 179.88Q569.25 179.88 570.64 181.24Q572.03 182.59 572.03 184.92L569.87 184.92Q569.87 183.43 569.09 182.63Q568.31 181.82 566.90 181.82Q565.48 181.82 564.68 182.62Q563.87 183.41 563.87 184.90L563.87 192.84Q563.87 194.33 564.68 195.14Q565.48 195.96 566.90 195.96Q568.31 195.96 569.09 195.14Q569.87 194.33 569.87 192.84L569.87 190.44L566.32 190.44L566.32 188.47L572.03 188.47L572.03 192.84Q572.03 195.17 570.64 196.52Q569.25 197.88 566.90 197.88" fill="white" fill-opacity="0.7"/>
<path d="M580.74 197.64L576.21 197.64L576.21 180.12L580.74 180.12Q582.45 180.12 583.68 180.77Q584.92 181.42 585.60 182.59Q586.29 183.77 586.29 185.38L586.29 192.36Q586.29 193.97 585.60 195.16Q584.92 196.34 583.68 196.99Q582.45 197.64 580.74 197.64M578.37 182.04L578.37 195.72L580.74 195.72Q582.33 195.72 583.23 194.83Q584.13 193.94 584.13 192.36L584.13 185.38Q584.13 183.82 583.23 182.93Q582.33 182.04 580.74 182.04" fill="white" fill-opacity="0.7"/>
<path d="M592.77 197.64L590.61 197.64L590.61 180.12L596.25 180.12Q598.70 180.12 600.15 181.52Q601.60 182.93 601.60 185.28Q601.60 187.63 600.15 189.04Q598.70 190.44 596.25 190.44L592.77 190.44L592.77 197.64M592.77 182.06L592.77 188.50L596.25 188.50Q597.66 188.50 598.52 187.62Q599.37 186.74 599.37 185.28Q599.37 183.79 598.52 182.93Q597.66 182.06 596.25 182.06" fill="white" fill-opacity="0.7"/>
<path d="M607.17 197.64L605.03 197.64L605.03 180.12L610.43 180.12Q611.99 180.12 613.17 180.76Q614.34 181.39 614.99 182.52Q615.64 183.65 615.64 185.16Q615.64 186.94 614.73 188.21Q613.82 189.48 612.30 189.98L615.88 197.64L613.50 197.64L610.07 190.20L607.17 190.20L607.17 197.64M607.17 182.06L607.17 188.26L610.43 188.26Q611.78 188.26 612.59 187.40Q613.41 186.55 613.41 185.16Q613.41 183.74 612.59 182.90Q611.78 182.06 610.43 182.06" fill="white" fill-opacity="0.7"/>
<path d="M638.90 197.88Q636.35 197.88 634.84 196.54Q633.33 195.19 633.33 192.84L635.49 192.84Q635.49 194.30 636.42 195.13Q637.36 195.96 638.90 195.96Q640.38 195.96 641.27 195.10Q642.16 194.23 642.16 192.84Q642.16 191.78 641.60 191Q641.03 190.22 639.98 189.94L637.31 189.19Q635.66 188.71 634.71 187.48Q633.76 186.24 633.76 184.56Q633.76 183.17 634.38 182.11Q635.01 181.06 636.14 180.47Q637.26 179.88 638.73 179.88Q640.22 179.88 641.36 180.47Q642.50 181.06 643.14 182.10Q643.79 183.14 643.79 184.51L641.63 184.51Q641.63 183.31 640.82 182.56Q640 181.80 638.73 181.80Q637.46 181.80 636.66 182.56Q635.87 183.31 635.87 184.51Q635.87 185.47 636.39 186.16Q636.90 186.84 637.84 187.10L640.58 187.87Q642.33 188.35 643.30 189.68Q644.27 191.02 644.27 192.84Q644.27 195.14 642.81 196.51Q641.34 197.88 638.90 197.88" fill="white" fill-opacity="0.7"/>
<path d="M653.18 197.88Q650.90 197.88 649.53 196.52Q648.16 195.17 648.16 192.84L648.16 184.44L650.32 184.44L650.32 192.84Q650.32 194.28 651.09 195.13Q651.86 195.98 653.18 195.98Q654.52 195.98 655.30 195.13Q656.08 194.28 656.08 192.84L656.08 184.44L658.24 184.44L658.24 192.84Q658.24 195.17 656.85 196.52Q655.46 197.88 653.18 197.88" fill="white" fill-opacity="0.7"/>
<path d="M668.37 197.88Q666.88 197.88 665.92 197.15Q664.96 196.42 664.79 195.12L664.77 195.12L664.77 197.64L662.61 197.64L662.61 180.12L664.77 180.12L664.77 183.96L664.72 186.96L664.74 186.96Q664.94 185.69 665.91 184.94Q666.88 184.20 668.37 184.20Q670.36 184.20 671.54 185.52Q672.71 186.84 672.71 189.12L672.71 192.98Q672.71 195.24 671.54 196.56Q670.36 197.88 668.37 197.88M667.65 196.01Q669.02 196.01 669.78 195.29Q670.55 194.57 670.55 192.96L670.55 189.12Q670.55 187.49 669.78 186.78Q669.02 186.07 667.65 186.07Q666.33 186.07 665.55 186.91Q664.77 187.75 664.77 189.24L664.77 192.84Q664.77 194.33 665.55 195.17Q666.33 196.01 667.65 196.01" fill="white" fill-opacity="0.7"/>
<path d="M679.94 201.96L676.96 201.96L676.96 199.99L679.94 199.99Q681.42 199.99 682.25 199.18Q683.08 198.36 683.08 196.90L683.08 186.41L676.84 186.41L676.84 184.44L685.24 184.44L685.24 196.90Q685.24 199.22 683.80 200.59Q682.36 201.96 679.94 201.96M683.92 182.06Q683.13 182.06 682.67 181.66Q682.22 181.25 682.22 180.55Q682.22 179.83 682.67 179.41Q683.13 178.99 683.92 178.99Q684.71 178.99 685.17 179.41Q685.62 179.83 685.62 180.55Q685.62 181.25 685.17 181.66Q684.71 182.06 683.92 182.06" fill="white" fill-opacity="0.7"/>
<path d="M696.40 197.88Q694.07 197.88 692.64 196.48Q691.22 195.07 691.22 192.60L691.22 189.48Q691.22 187.01 692.64 185.60Q694.07 184.20 696.40 184.20Q697.96 184.20 699.12 184.82Q700.29 185.45 700.94 186.58Q701.58 187.70 701.58 189.24L701.58 191.59L693.33 191.59L693.33 192.84Q693.33 194.30 694.17 195.16Q695.01 196.01 696.40 196.01Q697.60 196.01 698.38 195.54Q699.16 195.07 699.33 194.28L701.49 194.28Q701.27 195.94 699.88 196.91Q698.49 197.88 696.40 197.88M693.33 189.24L693.33 189.91L699.47 189.91L699.47 189.24Q699.47 187.68 698.67 186.83Q697.86 185.98 696.40 185.98Q694.94 185.98 694.13 186.83Q693.33 187.68 693.33 189.24" fill="white" fill-opacity="0.7"/>
<path d="M710.99 197.88Q708.59 197.88 707.15 196.54Q705.71 195.19 705.71 192.84L705.71 189.24Q705.71 186.89 707.15 185.54Q708.59 184.20 710.99 184.20Q713.27 184.20 714.68 185.42Q716.08 186.65 716.15 188.76L713.99 188.76Q713.92 187.49 713.13 186.80Q712.34 186.12 710.99 186.12Q709.58 186.12 708.72 186.92Q707.87 187.73 707.87 189.22L707.87 192.84Q707.87 194.33 708.72 195.14Q709.58 195.96 710.99 195.96Q712.34 195.96 713.13 195.26Q713.92 194.57 713.99 193.32L716.15 193.32Q716.08 195.43 714.68 196.66Q713.27 197.88 710.99 197.88" fill="white" fill-opacity="0.7"/>
<path d="M730.36 197.64L726.52 197.64Q724.89 197.64 723.90 196.69Q722.92 195.74 722.92 194.16L722.92 186.41L719.13 186.41L719.13 184.44L722.92 184.44L722.92 180.72L725.08 180.72L725.08 184.44L730.48 184.44L730.48 186.41L725.08 186.41L725.08 194.16Q725.08 194.83 725.48 195.25Q725.87 195.67 726.52 195.67L730.36 195.67" fill="white" fill-opacity="0.7"/>
<path d="M759.28 197.64L749.20 197.64L749.20 180.12L759.28 180.12L759.28 182.09L751.34 182.09L751.34 187.51L758.44 187.51L758.44 189.43L751.34 189.43L751.34 195.67L759.28 195.67" fill="white" fill-opacity="0.7"/>
<path d="M766.05 197.64L763.89 197.64L763.89 184.44L766.05 184.44L766.05 186.96L766.10 186.96Q766.26 185.69 767.18 184.94Q768.09 184.20 769.62 184.20Q771.69 184.20 772.80 185.44Q773.92 186.67 773.92 188.95L773.92 190.08L771.76 190.08L771.76 188.95Q771.76 186.07 768.95 186.07Q767.54 186.07 766.79 186.89Q766.05 187.70 766.05 189.24" fill="white" fill-opacity="0.7"/>
<path d="M781.65 197.88Q779.61 197.88 778.41 196.74Q777.21 195.60 777.21 193.75Q777.21 192.53 777.76 191.62Q778.31 190.70 779.30 190.19Q780.28 189.67 781.55 189.67L785.63 189.67L785.63 188.64Q785.63 186.07 782.82 186.07Q781.58 186.07 780.81 186.53Q780.04 186.98 779.99 187.80L777.83 187.80Q777.95 186.24 779.28 185.22Q780.62 184.20 782.82 184.20Q785.22 184.20 786.51 185.35Q787.79 186.50 787.79 188.57L787.79 197.64L785.66 197.64L785.66 195.24L785.61 195.24Q785.42 196.46 784.38 197.17Q783.35 197.88 781.65 197.88M782.18 196.06Q783.76 196.06 784.70 195.29Q785.63 194.52 785.63 193.20L785.63 191.35L781.79 191.35Q780.74 191.35 780.08 191.99Q779.42 192.62 779.42 193.68Q779.42 194.78 780.15 195.42Q780.88 196.06 782.18 196.06" fill="white" fill-opacity="0.7"/>
<path d="M797.73 197.83L796.67 197.83Q794.46 197.83 793.25 196.84Q792.04 195.84 792.04 194.02L794.20 194.02Q794.20 194.93 794.85 195.44Q795.50 195.96 796.67 195.96L797.73 195.96Q798.93 195.96 799.59 195.43Q800.25 194.90 800.25 193.94Q800.25 192.24 798.69 192.02L795.04 191.50Q793.70 191.30 792.95 190.38Q792.21 189.46 792.21 187.94Q792.21 186.22 793.40 185.23Q794.58 184.25 796.67 184.25L797.73 184.25Q799.65 184.25 800.86 185.20Q802.07 186.14 802.17 187.68L799.98 187.68Q799.94 186.98 799.32 186.53Q798.71 186.07 797.73 186.07L796.67 186.07Q795.57 186.07 794.94 186.58Q794.32 187.08 794.32 187.94Q794.32 189.34 795.59 189.53L799 190.01Q802.36 190.49 802.36 193.94Q802.36 195.79 801.15 196.81Q799.94 197.83 797.73 197.83" fill="white" fill-opacity="0.7"/>
<path d="M811.58 197.88Q809.30 197.88 807.93 196.52Q806.56 195.17 806.56 192.84L806.56 184.44L808.72 184.44L808.72 192.84Q808.72 194.28 809.49 195.13Q810.26 195.98 811.58 195.98Q812.92 195.98 813.70 195.13Q814.48 194.28 814.48 192.84L814.48 184.44L816.64 184.44L816.64 192.84Q816.64 195.17 815.25 196.52Q813.86 197.88 811.58 197.88" fill="white" fill-opacity="0.7"/>
<path d="M823.65 197.64L821.49 197.64L821.49 184.44L823.65 184.44L823.65 186.96L823.70 186.96Q823.86 185.69 824.78 184.94Q825.69 184.20 827.22 184.20Q829.29 184.20 830.40 185.44Q831.52 186.67 831.52 188.95L831.52 190.08L829.36 190.08L829.36 188.95Q829.36 186.07 826.55 186.07Q825.14 186.07 824.39 186.89Q823.65 187.70 823.65 189.24" fill="white" fill-opacity="0.7"/>
<path d="M840.40 197.88Q838.07 197.88 836.64 196.48Q835.22 195.07 835.22 192.60L835.22 189.48Q835.22 187.01 836.64 185.60Q838.07 184.20 840.40 184.20Q841.96 184.20 843.12 184.82Q844.29 185.45 844.94 186.58Q845.58 187.70 845.58 189.24L845.58 191.59L837.33 191.59L837.33 192.84Q837.33 194.30 838.17 195.16Q839.01 196.01 840.40 196.01Q841.60 196.01 842.38 195.54Q843.16 195.07 843.33 194.28L845.49 194.28Q845.27 195.94 843.88 196.91Q842.49 197.88 840.40 197.88M837.33 189.24L837.33 189.91L843.47 189.91L843.47 189.24Q843.47 187.68 842.67 186.83Q841.86 185.98 840.40 185.98Q838.94 185.98 838.13 186.83Q837.33 187.68 837.33 189.24" fill="white" fill-opacity="0.7"/>
<path d="M866.37 197.64L864.23 197.64L864.23 180.12L869.63 180.12Q871.19 180.12 872.37 180.76Q873.54 181.39 874.19 182.52Q874.84 183.65 874.84 185.16Q874.84 186.94 873.93 188.21Q873.02 189.48 871.50 189.98L875.08 197.64L872.70 197.64L869.27 190.20L866.37 190.20L866.37 197.64M866.37 182.06L866.37 188.26L869.63 188.26Q870.98 188.26 871.79 187.40Q872.61 186.55 872.61 185.16Q872.61 183.74 871.79 182.90Q870.98 182.06 869.63 182.06" fill="white" fill-opacity="0.7"/>
<path d="M883.60 197.88Q881.27 197.88 879.84 196.48Q878.42 195.07 878.42 192.60L878.42 189.48Q878.42 187.01 879.84 185.60Q881.27 184.20 883.60 184.20Q885.16 184.20 886.32 184.82Q887.49 185.45 888.14 186.58Q888.78 187.70 888.78 189.24L888.78 191.59L880.53 191.59L880.53 192.84Q880.53 194.30 881.37 195.16Q882.21 196.01 883.60 196.01Q884.80 196.01 885.58 195.54Q886.36 195.07 886.53 194.28L888.69 194.28Q888.47 195.94 887.08 196.91Q885.69 197.88 883.60 197.88M880.53 189.24L880.53 189.91L886.67 189.91L886.67 189.24Q886.67 187.68 885.87 186.83Q885.06 185.98 883.60 185.98Q882.14 185.98 881.33 186.83Q880.53 187.68 880.53 189.24" fill="white" fill-opacity="0.7"/>
<path d="M902.99 201.96L900.83 201.96L900.83 198.12L900.88 195.12L900.81 195.12Q900.64 196.39 899.68 197.14Q898.72 197.88 897.23 197.88Q895.24 197.88 894.06 196.56Q892.89 195.24 892.89 192.96L892.89 189.10Q892.89 186.82 894.08 185.51Q895.26 184.20 897.23 184.20Q898.72 184.20 899.68 184.93Q900.64 185.66 900.81 186.96L900.83 186.96L900.83 184.44L902.99 184.44L902.99 201.96M897.95 196.01Q899.30 196.01 900.06 195.17Q900.83 194.33 900.83 192.84L900.83 189.24Q900.83 187.75 900.06 186.91Q899.30 186.07 897.95 186.07Q896.58 186.07 895.82 186.77Q895.05 187.46 895.05 189L895.05 193.08Q895.05 194.62 895.82 195.31Q896.58 196.01 897.95 196.01" fill="white" fill-opacity="0.7"/>
<path d="M912.38 197.88Q910.10 197.88 908.73 196.52Q907.36 195.17 907.36 192.84L907.36 184.44L909.52 184.44L909.52 192.84Q909.52 194.28 910.29 195.13Q911.06 195.98 912.38 195.98Q913.72 195.98 914.50 195.13Q915.28 194.28 915.28 192.84L915.28 184.44L917.44 184.44L917.44 192.84Q917.44 195.17 916.05 196.52Q914.66 197.88 912.38 197.88" fill="white" fill-opacity="0.7"/>
<path d="M926.80 197.88Q924.47 197.88 923.04 196.48Q921.62 195.07 921.62 192.60L921.62 189.48Q921.62 187.01 923.04 185.60Q924.47 184.20 926.80 184.20Q928.36 184.20 929.52 184.82Q930.69 185.45 931.34 186.58Q931.98 187.70 931.98 189.24L931.98 191.59L923.73 191.59L923.73 192.84Q923.73 194.30 924.57 195.16Q925.41 196.01 926.80 196.01Q928 196.01 928.78 195.54Q929.56 195.07 929.73 194.28L931.89 194.28Q931.67 195.94 930.28 196.91Q928.89 197.88 926.80 197.88M923.73 189.24L923.73 189.91L929.87 189.91L929.87 189.24Q929.87 187.68 929.07 186.83Q928.26 185.98 926.80 185.98Q925.34 185.98 924.53 186.83Q923.73 187.68 923.73 189.24" fill="white" fill-opacity="0.7"/>
<path d="M941.73 197.83L940.67 197.83Q938.46 197.83 937.25 196.84Q936.04 195.84 936.04 194.02L938.20 194.02Q938.20 194.93 938.85 195.44Q939.50 195.96 940.67 195.96L941.73 195.96Q942.93 195.96 943.59 195.43Q944.25 194.90 944.25 193.94Q944.25 192.24 942.69 192.02L939.04 191.50Q937.70 191.30 936.95 190.38Q936.21 189.46 936.21 187.94Q936.21 186.22 937.40 185.23Q938.58 184.25 940.67 184.25L941.73 184.25Q943.65 184.25 944.86 185.20Q946.07 186.14 946.17 187.68L943.98 187.68Q943.94 186.98 943.32 186.53Q942.71 186.07 941.73 186.07L940.67 186.07Q939.57 186.07 938.94 186.58Q938.32 187.08 938.32 187.94Q938.32 189.34 939.59 189.53L943 190.01Q946.36 190.49 946.36 193.94Q946.36 195.79 945.15 196.81Q943.94 197.83 941.73 197.83" fill="white" fill-opacity="0.7"/>
<path d="M960.76 197.64L956.92 197.64Q955.29 197.64 954.30 196.69Q953.32 195.74 953.32 194.16L953.32 186.41L949.53 186.41L949.53 184.44L953.32 184.44L953.32 180.72L955.48 180.72L955.48 184.44L960.88 184.44L960.88 186.41L955.48 186.41L955.48 194.16Q955.48 194.83 955.88 195.25Q956.27 195.67 956.92 195.67L960.76 195.67" fill="white" fill-opacity="0.7"/>
<path d="M981.57 201.96L979.41 201.96L979.41 184.44L981.57 184.44L981.57 186.96L981.59 186.96Q981.76 185.66 982.72 184.93Q983.68 184.20 985.17 184.20Q987.16 184.20 988.34 185.51Q989.51 186.82 989.51 189.10L989.51 192.96Q989.51 195.24 988.34 196.56Q987.16 197.88 985.17 197.88Q983.68 197.88 982.72 197.14Q981.76 196.39 981.59 195.12L981.52 195.12L981.57 198.12L981.57 201.96M984.45 196.01Q985.82 196.01 986.58 195.29Q987.35 194.57 987.35 192.96L987.35 189.12Q987.35 187.49 986.58 186.78Q985.82 186.07 984.45 186.07Q983.13 186.07 982.35 186.91Q981.57 187.75 981.57 189.24L981.57 192.84Q981.57 194.33 982.35 195.17Q983.13 196.01 984.45 196.01" fill="white" fill-opacity="0.7"/>
<path d="M996.45 197.64L994.29 197.64L994.29 184.44L996.45 184.44L996.45 186.96L996.50 186.96Q996.66 185.69 997.58 184.94Q998.49 184.20 1000.02 184.20Q1002.09 184.20 1003.20 185.44Q1004.32 186.67 1004.32 188.95L1004.32 190.08L1002.16 190.08L1002.16 188.95Q1002.16 186.07 999.35 186.07Q997.94 186.07 997.19 186.89Q996.45 187.70 996.45 189.24" fill="white" fill-opacity="0.7"/>
<path d="M1013.20 197.83Q1010.82 197.83 1009.42 196.44Q1008.02 195.05 1008.02 192.55L1008.02 189.53Q1008.02 187.01 1009.41 185.63Q1010.80 184.25 1013.20 184.25Q1015.60 184.25 1016.99 185.63Q1018.38 187.01 1018.38 189.53L1018.38 192.55Q1018.38 195.05 1016.98 196.44Q1015.58 197.83 1013.20 197.83M1013.20 195.91Q1014.62 195.91 1015.42 195.12Q1016.22 194.33 1016.22 192.79L1016.22 189.29Q1016.22 187.75 1015.42 186.96Q1014.62 186.17 1013.20 186.17Q1011.81 186.17 1010.99 186.96Q1010.18 187.75 1010.18 189.29L1010.18 192.79Q1010.18 194.33 1010.99 195.12Q1011.81 195.91 1013.20 195.91" fill="white" fill-opacity="0.7"/>
<path d="M1027.79 197.88Q1025.39 197.88 1023.95 196.54Q1022.51 195.19 1022.51 192.84L1022.51 189.24Q1022.51 186.89 1023.95 185.54Q1025.39 184.20 1027.79 184.20Q1030.07 184.20 1031.48 185.42Q1032.88 186.65 1032.95 188.76L1030.79 188.76Q1030.72 187.49 1029.93 186.80Q1029.14 186.12 1027.79 186.12Q1026.38 186.12 1025.52 186.92Q1024.67 187.73 1024.67 189.22L1024.67 192.84Q1024.67 194.33 1025.52 195.14Q1026.38 195.96 1027.79 195.96Q1029.14 195.96 1029.93 195.26Q1030.72 194.57 1030.79 193.32L1032.95 193.32Q1032.88 195.43 1031.48 196.66Q1030.07 197.88 1027.79 197.88" fill="white" fill-opacity="0.7"/>
<path d="M1042 197.88Q1039.67 197.88 1038.24 196.48Q1036.82 195.07 1036.82 192.60L1036.82 189.48Q1036.82 187.01 1038.24 185.60Q1039.67 184.20 1042 184.20Q1043.56 184.20 1044.72 184.82Q1045.89 185.45 1046.54 186.58Q1047.18 187.70 1047.18 189.24L1047.18 191.59L1038.93 191.59L1038.93 192.84Q1038.93 194.30 1039.77 195.16Q1040.61 196.01 1042 196.01Q1043.20 196.01 1043.98 195.54Q1044.76 195.07 1044.93 194.28L1047.09 194.28Q1046.87 195.94 1045.48 196.91Q1044.09 197.88 1042 197.88M1038.93 189.24L1038.93 189.91L1045.07 189.91L1045.07 189.24Q1045.07 187.68 1044.27 186.83Q1043.46 185.98 1042 185.98Q1040.54 185.98 1039.73 186.83Q1038.93 187.68 1038.93 189.24" fill="white" fill-opacity="0.7"/>
<path d="M1056.93 197.83L1055.87 197.83Q1053.66 197.83 1052.45 196.84Q1051.24 195.84 1051.24 194.02L1053.40 194.02Q1053.40 194.93 1054.05 195.44Q1054.70 195.96 1055.87 195.96L1056.93 195.96Q1058.13 195.96 1058.79 195.43Q1059.45 194.90 1059.45 193.94Q1059.45 192.24 1057.89 192.02L1054.24 191.50Q1052.90 191.30 1052.15 190.38Q1051.41 189.46 1051.41 187.94Q1051.41 186.22 1052.60 185.23Q1053.78 184.25 1055.87 184.25L1056.93 184.25Q1058.85 184.25 1060.06 185.20Q1061.27 186.14 1061.37 187.68L1059.18 187.68Q1059.14 186.98 1058.52 186.53Q1057.91 186.07 1056.93 186.07L1055.87 186.07Q1054.77 186.07 1054.14 186.58Q1053.52 187.08 1053.52 187.94Q1053.52 189.34 1054.79 189.53L1058.20 190.01Q1061.56 190.49 1061.56 193.94Q1061.56 195.79 1060.35 196.81Q1059.14 197.83 1056.93 197.83" fill="white" fill-opacity="0.7"/>
<path d="M1071.33 197.83L1070.27 197.83Q1068.06 197.83 1066.85 196.84Q1065.64 195.84 1065.64 194.02L1067.80 194.02Q1067.80 194.93 1068.45 195.44Q1069.10 195.96 1070.27 195.96L1071.33 195.96Q1072.53 195.96 1073.19 195.43Q1073.85 194.90 1073.85 193.94Q1073.85 192.24 1072.29 192.02L1068.64 191.50Q1067.30 191.30 1066.55 190.38Q1065.81 189.46 1065.81 187.94Q1065.81 186.22 1067 185.23Q1068.18 184.25 1070.27 184.25L1071.33 184.25Q1073.25 184.25 1074.46 185.20Q1075.67 186.14 1075.77 187.68L1073.58 187.68Q1073.54 186.98 1072.92 186.53Q1072.31 186.07 1071.33 186.07L1070.27 186.07Q1069.17 186.07 1068.54 186.58Q1067.92 187.08 1067.92 187.94Q1067.92 189.34 1069.19 189.53L1072.60 190.01Q1075.96 190.49 1075.96 193.94Q1075.96 195.79 1074.75 196.81Q1073.54 197.83 1071.33 197.83" fill="white" fill-opacity="0.7"/>
<path d="M1091.32 197.64L1080.04 197.64L1080.04 195.67L1084.72 195.67L1084.72 186.41L1080.52 186.41L1080.52 184.44L1086.88 184.44L1086.88 195.67L1091.32 195.67L1091.32 197.64M1085.56 182.06Q1084.77 182.06 1084.31 181.66Q1083.86 181.25 1083.86 180.55Q1083.86 179.83 1084.31 179.41Q1084.77 178.99 1085.56 178.99Q1086.35 178.99 1086.81 179.41Q1087.26 179.83 1087.26 180.55Q1087.26 181.25 1086.81 181.66Q1086.35 182.06 1085.56 182.06" fill="white" fill-opacity="0.7"/>
<path d="M1096.77 197.64L1094.61 197.64L1094.61 184.44L1096.77 184.44L1096.77 186.96L1096.79 186.96Q1096.96 185.64 1097.87 184.92Q1098.78 184.20 1100.30 184.20Q1102.29 184.20 1103.46 185.42Q1104.64 186.65 1104.64 188.76L1104.64 197.64L1102.48 197.64L1102.48 189.14Q1102.48 187.63 1101.72 186.83Q1100.97 186.02 1099.67 186.02Q1098.33 186.02 1097.55 186.86Q1096.77 187.70 1096.77 189.24" fill="white" fill-opacity="0.7"/>
<path d="M1114.36 201.96L1110.66 201.96L1110.66 199.99L1114.38 199.99Q1115.51 199.99 1116.16 199.36Q1116.81 198.72 1116.81 197.64L1116.81 196.44L1116.86 194.28L1116.78 194.28Q1116.59 195.46 1115.66 196.09Q1114.72 196.73 1113.30 196.73Q1111.26 196.73 1110.09 195.43Q1108.91 194.14 1108.91 191.88L1108.91 189.10Q1108.91 186.84 1110.09 185.52Q1111.26 184.20 1113.30 184.20Q1114.72 184.20 1115.66 184.87Q1116.59 185.54 1116.78 186.72L1116.83 186.72L1116.83 184.44L1118.97 184.44L1118.97 197.64Q1118.97 199.63 1117.73 200.80Q1116.50 201.96 1114.36 201.96M1113.95 194.93Q1115.30 194.93 1116.06 194.09Q1116.83 193.25 1116.83 191.76L1116.83 189.24Q1116.83 187.75 1116.06 186.91Q1115.30 186.07 1113.95 186.07Q1112.58 186.07 1111.83 186.86Q1111.07 187.66 1111.07 189L1111.07 192Q1111.07 193.34 1111.83 194.14Q1112.58 194.93 1113.95 194.93" fill="white" fill-opacity="0.7"/>
<path d="M1128.40 197.88Q1127.51 197.88 1126.97 197.35Q1126.43 196.82 1126.43 195.98Q1126.43 195.10 1126.97 194.54Q1127.51 193.99 1128.40 193.99Q1129.29 193.99 1129.83 194.54Q1130.37 195.10 1130.37 195.98Q1130.37 196.82 1129.83 197.35Q1129.29 197.88 1128.40 197.88" fill="white" fill-opacity="0.7"/>
<path d="M76.11 136.06L66.42 136.06L84.56 65.98L97.14 65.98L115.18 136.06L105.49 136.06L101.07 117.82L80.53 117.82L76.11 136.06M87.54 88.92L82.45 109.95L99.15 109.95L94.16 89.02Q92.72 83.26 91.86 79.23Q90.99 75.20 90.80 73.76Q90.61 75.20 89.74 79.23Q88.88 83.26 87.54 88.92M146.86 136.06L128.05 136.06L128.05 65.98L146.86 65.98Q153.68 65.98 158.72 68.62Q163.76 71.26 166.54 76.01Q169.33 80.76 169.33 87.20L169.33 114.75Q169.33 121.18 166.54 125.98Q163.76 130.78 158.72 133.42Q153.68 136.06 146.86 136.06M137.55 74.43L137.55 127.61L146.86 127.61Q152.91 127.61 156.37 124.16Q159.82 120.70 159.82 114.75L159.82 87.20Q159.82 81.24 156.37 77.84Q152.91 74.43 146.86 74.43L137.55 74.43M210.80 136.06L201.30 136.06L201.30 110.04L180.27 65.98L190.35 65.98L203.31 93.63Q204.46 96.12 205.18 98.14Q205.90 100.16 206.10 101.02Q206.38 100.16 207.10 98.14Q207.82 96.12 209.07 93.63L221.94 65.98L231.73 65.98L210.80 110.04L210.80 136.06M284.91 136.06L244.11 136.06L244.11 65.98L284.91 65.98L284.91 74.52L253.52 74.52L253.52 95.36L281.55 95.36L281.55 103.61L253.52 103.61L253.52 127.52L284.91 127.52L284.91 136.06M309.58 136.06L300.66 136.06L300.66 65.98L312.94 65.98L333.87 125.12Q333.58 122.62 333.34 118.92Q333.10 115.23 332.96 111.24Q332.82 107.26 332.82 103.71L332.82 65.98L341.84 65.98L341.84 136.06L329.46 136.06L308.72 76.92Q308.91 79.42 309.10 83.02Q309.30 86.62 309.44 90.56Q309.58 94.49 309.58 97.95L309.58 136.06M434.86 136.06L416.05 136.06L416.05 65.98L434.86 65.98Q441.68 65.98 446.72 68.62Q451.76 71.26 454.54 76.01Q457.33 80.76 457.33 87.20L457.33 114.75Q457.33 121.18 454.54 125.98Q451.76 130.78 446.72 133.42Q441.68 136.06 434.86 136.06M425.55 74.43L425.55 127.61L434.86 127.61Q440.91 127.61 444.37 124.16Q447.82 120.70 447.82 114.75L447.82 87.20Q447.82 81.24 444.37 77.84Q440.91 74.43 434.86 74.43L425.55 74.43M479.31 136.06L469.62 136.06L487.76 65.98L500.34 65.98L518.38 136.06L508.69 136.06L504.27 117.82L483.73 117.82L479.31 136.06M490.74 88.92L485.65 109.95L502.35 109.95L497.36 89.02Q495.92 83.26 495.06 79.23Q494.19 75.20 NaN 73.76Q493.81 75.20 492.94 79.23Q492.08 83.26 490.74 88.92M556.40 136.06L546.90 136.06L546.90 74.62L527.89 74.62L527.89 65.98L575.31 65.98L575.31 74.62L556.40 74.62L556.40 136.06M594.51 136.06L584.82 136.06L602.96 65.98L615.54 65.98L633.58 136.06L623.89 136.06L619.47 117.82L598.93 117.82L594.51 136.06M605.94 88.92L600.85 109.95L617.55 109.95L612.56 89.02Q611.12 83.26 610.26 79.23Q609.39 75.20 609.20 73.76Q609.01 75.20 608.14 79.23Q607.28 83.26 605.94 88.92M655.95 136.06L646.45 136.06L646.45 65.98L669.20 65.98Q675.92 65.98 680.82 68.57Q685.71 71.16 688.40 75.82Q691.09 80.48 691.09 86.91Q691.09 93.24 688.40 97.90Q685.71 102.56 680.77 105.15Q675.82 107.74 669.20 107.74L655.95 107.74L655.95 136.06M655.95 74.43L655.95 99.29L669.20 99.29Q674.77 99.29 678.03 95.88Q681.30 92.48 681.30 86.91Q681.30 81.24 678.03 77.84Q674.77 74.43 669.20 74.43L655.95 74.43M713.55 136.06L704.14 136.06L704.14 65.98L725.84 65.98Q732.27 65.98 737.07 68.52Q741.87 71.07 744.56 75.63Q747.25 80.19 747.25 86.33Q747.25 93.44 743.65 98.52Q740.05 103.61 734.10 105.72L748.21 136.06L737.74 136.06L724.40 106.78L713.55 106.78L713.55 136.06M713.55 74.43L713.55 98.33L725.84 98.33Q731.22 98.33 734.34 95.07Q737.46 91.80 737.46 86.43Q737.46 80.96 734.29 77.69Q731.12 74.43 725.84 74.43L713.55 74.43MNaN 137.02Q772.40 137.02 766.83 131.45Q761.26 125.88 761.26 115.71L761.26 86.24Q761.26 76.16 766.83 70.59Q772.40 65.02 NaN 65.02Q791.60 65.02 797.17 70.54Q802.74 76.06 802.74 86.24L802.74 115.71Q802.74 125.88 797.17 131.45Q791.60 137.02 NaN 137.02MNaN 128.57Q787.38 128.57 790.30 125.50Q793.23 122.43 793.23 116.67L793.23 85.28Q793.23 79.61 790.35 76.54Q787.47 73.47 NaN 73.47Q776.53 73.47 773.65 76.54Q770.77 79.61 770.77 85.28L770.77 116.67Q770.77 122.43 773.70 125.50Q776.62 128.57 NaN 128.57M844.40 136.06L834.90 136.06L834.90 74.62L815.89 74.62L815.89 65.98L863.31 65.98L863.31 74.62L844.40 74.62L844.40 136.06M918.51 136.06L877.71 136.06L877.71 65.98L918.51 65.98L918.51 74.52L887.12 74.52L887.12 95.36L915.15 95.36L915.15 103.61L887.12 103.61L887.12 127.52L918.51 127.52L918.51 136.06M955.57 137.02Q945.87 137.02 940.16 131.60Q934.45 126.17 934.45 116.67L934.45 85.28Q934.45 75.87 940.16 70.44Q945.87 65.02 955.57 65.02Q965.17 65.02 970.88 70.49Q976.59 75.96 976.59 85.28L967.09 85.28Q967.09 79.61 964.02 76.54Q960.94 73.47 955.57 73.47Q950.10 73.47 947.02 76.54Q943.95 79.61 943.95 85.28L943.95 116.67Q943.95 122.43 947.02 125.50Q950.10 128.57 955.57 128.57Q960.94 128.57 964.02 125.50Q967.09 122.43 967.09 116.67L976.59 116.67Q976.59 126.08 970.88 131.55Q965.17 137.02 955.57 137.02M1017.20 136.06L1007.70 136.06L1007.70 74.62L988.69 74.62L988.69 65.98L1036.11 65.98L1036.11 74.62L1017.20 74.62L1017.20 136.06M1089.10 136.06L1050.90 136.06L1050.90 127.42L1065.20 127.42L1065.20 74.62L1050.90 74.62L1050.90 65.98L1089.10 65.98L1089.10 74.62L1074.80 74.62L1074.80 127.42L1089.10 127.42L1089.10 136.06M1127.60 137.02QNaN 137.02 1112.43 131.45Q1106.86 125.88 1106.86 115.71L1106.86 86.24Q1106.86 76.16 1112.43 70.59QNaN 65.02 1127.60 65.02Q1137.20 65.02 1142.77 70.54Q1148.34 76.06 1148.34 86.24L1148.34 115.71Q1148.34 125.88 1142.77 131.45Q1137.20 137.02 1127.60 137.02M1127.60 128.57Q1132.98 128.57 1135.90 125.50Q1138.83 122.43 1138.83 116.67L1138.83 85.28Q1138.83 79.61 1135.95 76.54Q1133.07 73.47 1127.60 73.47Q1122.13 73.47 1119.25 76.54Q1116.37 79.61 1116.37 85.28L1116.37 116.67Q1116.37 122.43 1119.30 125.50Q1122.22 128.57 1127.60 128.57M1173.58 136.06L1164.66 136.06L1164.66 65.98L1176.94 65.98L1197.87 125.12Q1197.58 122.62 1197.34 118.92Q1197.10 115.23 1196.96 111.24Q1196.82 107.26 1196.82 103.71L1196.82 65.98L1205.84 65.98L1205.84 136.06L1193.46 136.06L1172.72 76.92Q1172.91 79.42 1173.10 83.02Q1173.30 86.62 1173.44 90.56Q1173.58 94.49 1173.58 97.95L1173.58 136.06M1243.18 137.02Q1232.82 137.02 1226.67 131.60Q1220.53 126.17 1220.53 116.67L1230.03 116.67Q1230.03 122.24 1233.58 125.40Q1237.14 128.57 1243.18 128.57Q1248.94 128.57 1252.35 125.36Q1255.76 122.14 1255.76 116.76Q1255.76 112.73 1253.55 109.71Q1251.34 106.68 1247.31 105.63L1236.94 102.84Q1230.13 100.92 1226.14 95.88Q1222.16 90.84 1222.16 83.93Q1222.16 78.27 1224.70 74Q1227.25 69.72 1231.86 67.37Q1236.46 65.02 1242.51 65.02Q1248.66 65.02 1253.31 67.37Q1257.97 69.72 1260.56 73.95Q1263.15 78.17 1263.15 83.74L1253.74 83.74Q1253.74 79.13 1250.62 76.25Q1247.50 73.37 1242.51 73.37Q1237.52 73.37 1234.50 76.25Q1231.47 79.13 1231.47 83.74Q1231.47 87.48 1233.49 90.03Q1235.50 92.57 1239.15 93.63L1249.81 96.51Q1257.01 98.43 1261.04 103.85Q1265.07 109.28 1265.07 116.76Q1265.07 122.91 1262.38 127.47Q1259.70 132.03 1254.75 134.52Q1249.81 137.02 1243.18 137.02M1321.71 136.06L1280.91 136.06L1280.91 65.98L1321.71 65.98L1321.71 74.52L1290.32 74.52L1290.32 95.36L1318.35 95.36L1318.35 103.61L1290.32 103.61L1290.32 127.52L1321.71 127.52L1321.71 136.06M1347.15 136.06L1337.74 136.06L1337.74 65.98L1359.44 65.98Q1365.87 65.98 1370.67 68.52Q1375.47 71.07 1378.16 75.63Q1380.85 80.19 1380.85 86.33Q1380.85 93.44 1377.25 98.52Q1373.65 103.61 1367.70 105.72L1381.81 136.06L1371.34 136.06L1358 106.78L1347.15 106.78L1347.15 136.06M1347.15 74.43L1347.15 98.33L1359.44 98.33Q1364.82 98.33 1367.94 95.07Q1371.06 91.80 1371.06 86.43Q1371.06 80.96 1367.89 77.69Q1364.72 74.43 1359.44 74.43L1347.15 74.43M1421.94 136.06L1409.17 136.06L1391.22 65.98L1401.01 65.98L1412.62 113.21Q1413.78 117.72 1414.59 121.90Q1415.41 126.08 1415.79 128.28Q1416.08 126.08 1416.99 121.85Q1417.90 117.63 1418.96 113.12L1430.19 65.98L1439.98 65.98L1421.94 136.06M1492.30 136.06L1454.10 136.06L1454.10 127.42L1468.40 127.42L1468.40 74.62L1454.10 74.62L1454.10 65.98L1492.30 65.98L1492.30 74.62L1478 74.62L1478 127.42L1492.30 127.42L1492.30 136.06M1531.57 137.02Q1521.87 137.02 1516.16 131.60Q1510.45 126.17 1510.45 116.67L1510.45 85.28Q1510.45 75.87 1516.16 70.44Q1521.87 65.02 1531.57 65.02Q1541.17 65.02 1546.88 70.49Q1552.59 75.96 1552.59 85.28L1543.09 85.28Q1543.09 79.61 1540.02 76.54Q1536.94 73.47 1531.57 73.47Q1526.10 73.47 1523.02 76.54Q1519.95 79.61 1519.95 85.28L1519.95 116.67Q1519.95 122.43 1523.02 125.50Q1526.10 128.57 1531.57 128.57Q1536.94 128.57 1540.02 125.50Q1543.09 122.43 1543.09 116.67L1552.59 116.67Q1552.59 126.08 1546.88 131.55Q1541.17 137.02 1531.57 137.02M1609.71 136.06L1568.91 136.06L1568.91 65.98L1609.71 65.98L1609.71 74.52L1578.32 74.52L1578.32 95.36L1606.35 95.36L1606.35 103.61L1578.32 103.61L1578.32 127.52L1609.71 127.52" fill="url(#paint2_linear_0_1)"/>
<g id="Group 1">
<rect id="Rectangle 1" x="26" y="168" width="12" height="184" rx="5" fill="url(#paint3_linear_0_1)" fill-opacity="0.9"/>
</g>
<g id="Group 1_2">
<rect id="Rectangle 2" x="26" y="38" width="12" height="119" rx="5" fill="url(#paint4_linear_0_1)" fill-opacity="0.9"/>
</g>
<ellipse id="Ellipse 1" cx="148.5" cy="573" rx="215.5" ry="214" fill="url(#paint5_linear_0_1)" fill-opacity="0.4"/>
<rect id="Rectangle 3" x="1229" y="48" width="300" height="300" rx="25" fill="#FFFBFB" fill-opacity="0.9"/>
<g id="placeholder-logo"><g transform="translate(1229,48) translate(0.0,60.0) scale(1.2000)"><g fill="#666666">
  <path d="m88.05,27.65c-3.15,4 -3.2,51.2 -0.05,54.35c2.75,2.75 71.7,3.15 74.45,0.45c2.85,-2.9 2.3,-53.85 -0.65,-55.9c-1.95,-1.35 -7.15,-1.55 -36.95,-1.55l-34.7,0l-2.1,2.65zm69.45,3.35c0.65,0 1,8.6 1,23.75l0,23.75l-33,0l-33,0l-0.25,-23c-0.15,-12.6 -0.1,-23.45 0.15,-24.1c0.35,-0.85 8.9,-1.05 32.25,-0.75c17.55,0.2 32.3,0.35 32.85,0.35z"/>
  <path d="m99.15,37.3c-6.85,7.35 4.25,17.35 11.4,10.25c1.35,-1.35 2.45,-3.65 2.45,-5.05c0,-6.45 -9.35,-9.95 -13.85,-5.2z"/>
  <path d="m135,42.5c-0.7,0.85 -5.25,5.15 -10.1,9.6l-8.85,8.1l-3.2,-3.2l-3.15,-3.15l-6.35,6.3c-5.55,5.5 -6.35,6.75 -6.35,10.05l0,3.8l28.5,0l28.5,0l0,-8.6l0,-8.55l-8.15,-7.7c-9.35,-8.85 -9.15,-8.7 -10.85,-6.65zm7.25,15.2c0.95,0.9 1.75,2.9 1.75,4.45c6.35,-5.05 4.75,-7.15 4.9,-11.55c0.95,0 0,0 0,0l-6.65,7.1z"/>
  <path d="m53.65,110.75c0.1,4.8 0.45,8.65 0.75,8.5c0.35,-0.15 1.3,-0.25 2.1,-0.25c1.1,0 1.5,-1.2 1.5,-4.75l0,-4.75l3.25,5c4.9,7.5 6.2,6.75 6.55,-3.75c0.25,-8.15 0.15,-8.75 -1.7,-8.75c-1.65,0 -2.05,0.8 -2.3,4.75l-0.3,4.75l-2.8,-4.75c-4.85,-8.25 -7.25,-6.9 -7.05,4z"/>
  <path d="m91,108.9c0,9.65 0.3,10.1 6.1,10.1c5.8,0 7.15,-2.65 1.65,-3.2l-3.25,-0.3l-0.3,-6.75c-0.25,-5.95 -0.55,-6.75 -2.25,-6.75c-1.75,0 -1.95,0.7 -1.95,6.9z"/>
  <path d="m151,102.45c0,0.25 1,2.15 2.25,4.2c1.2,2.1 2.45,5.8 2.75,8.25c0.65,5.9 4,6.95 4,1.25c0.05,-2.1 1.25,-5.85 2.95,-8.9l2.9,-5.25l-2.5,0c-1.8,0 -2.8,0.85 -3.75,3.1l-1.3,3.05l-1.25,-3.05c-1.1,-2.6 -6.05,-4.8 -6.05,-2.65z"/>
  <path d="m191,107.45c0,9.05 3.4,8.85 4.25,-0.2c0.45,-5 0.35,-5.25 -1.9,-5.25c-2.2,0 -2.35,0.4 -2.35,5.45z"/>
  <path d="m180.8,104.75c-1.3,5.35 0.65,13.6 3.45,14.35c2.3,0.6 2.75,0.4 2.75,-1.2c0,-1.05 -0.45,-1.9 -1,-1.9c-0.55,0 -1,-1.6 -1,-3.5c0,-1.95 0.45,-3.5 1,-3.5c0.55,0 1,-0.7 1,-1.5c0,-0.85 -0.45,-1.5 -1,-1.5c-0.55,0 -1,-0.7 -1,-1.5c0,-2.1 -3.65,-1.9 -4.2,0.25z"/>
  <path d="m71.55,106.55c-2.2,2.25 -2.05,9.7 0.3,11.8c4.5,4.1 10.15,0.75 10.15,-6.1c0,-4.85 -2,-7.25 -6,-7.25c-1.55,0 -3.55,0.7 -4.45,1.55zm6.25,5.8c0.25,3.05 0,3.65 -1.6,3.65c-2.3,0 -3.25,-2.65 -2.05,-5.85c1.25,-3.35 3.3,-2.1 3.65,2.2z"/>
  <path d="m105.75,106.1c-2.5,1.45 -2.45,9.95 0.1,12.25c4.3,3.9 10.15,0.35 10.15,-6.2c0,-6 -5.15,-9.05 -10.25,-6.05zm6.05,6.25c0.25,3.05 0,3.65 -1.6,3.65c-2.3,0 -3.25,-2.65 -2.05,-5.85c1.25,-3.35 3.3,-2.1 3.65,2.2z"/>
  <path d="m119.2,106.2c-3.8,3.8 -0.4,12.55 4.4,11.35c1.9,-0.45 2.45,-0.3 2.15,0.65c-0.25,0.7 -1.55,1.2 -2.85,1.1c-4.05,-0.3 -5.35,0.45 -3.85,2.25c0.85,1.05 2.6,1.45 5.35,1.25l4.1,-0.3l0.3,-8.75l0.3,-8.75l-4.35,0c-2.4,0 -4.9,0.55 -5.55,1.2zm6.6,4.45c0.4,2.85 -2.15,4.85 -3.75,2.95c-0.9,-1.1 -0.9,-2 -0.05,-3.6c1.35,-2.5 3.4,-2.15 3.8,0.65z"/>
  <path d="m133.55,106.55c-2.2,2.25 -2.05,9.7 0.3,11.8c4.5,4.1 10.15,0.75 10.15,-6.1c0,-4.85 -2,-7.25 -6,-7.25c-1.55,0 -3.55,0.7 -4.45,1.55zm6.25,5.8c0.25,3.05 0,3.65 -1.6,3.65c-2.3,0 -3.25,-2.65 -2.05,-5.85c1.25,-3.35 3.3,-2.1 3.65,2.2z"/>
  <path d="m167.65,106.85c-3.9,4.3 -0.75,13.15 4.7,13.15c2.4,0 5.65,-2.75 5.65,-4.85c0,-1.4 -2.65,-1.55 -3.5,-0.15c-0.95,1.55 -4.5,1.15 -4.5,-0.5c0,-1.1 1.1,-1.5 4,-1.5c3.15,0 4,-0.35 4,-1.8c0,-5.3 -6.85,-8.25 -10.35,-4.35z"/>
  <path d="m191,117.5c0,2.15 0.4,2.6 2.25,2.3c1.5,-0.2 2.25,-1 2.25,-2.3c0,-1.3 -0.75,-2.1 -2.25,-2.3c-1.85,-0.3 -2.25,0.15 -2.25,2.3z"/>
 </g></g></g>
</g>
<defs>
<linearGradient id="paint0_linear_0_1" x1="0" y1="198" x2="1584" y2="198" gradientUnits="userSpaceOnUse">
<stop stop-color="#3D052C"/>
<stop offset="1"/>
</linearGradient>
<linearGradient id="paint1_linear_0_1" x1="323" y1="-224" x2="323" y2="352" gradientUnits="userSpaceOnUse">
<stop stop-color="#28F6F2" stop-opacity="0.4"/>
<stop offset="1" stop-color="#17908E" stop-opacity="0.7"/>
</linearGradient>
<linearGradient id="paint2_linear_0_1" x1="148.5" y1="38" x2="148.5" y2="140" gradientUnits="userSpaceOnUse">
<stop stop-color="white"/>
<stop offset="1" stop-color="#999999"/>
</linearGradient>
<linearGradient id="paint3_linear_0_1" x1="38" y1="260" x2="26" y2="260" gradientUnits="userSpaceOnUse">
<stop stop-color="#D9D9D9"/>
<stop offset="1" stop-color="#737373"/>
</linearGradient>
<linearGradient id="paint4_linear_0_1" x1="38" y1="97.5" x2="26" y2="97.5" gradientUnits="userSpaceOnUse">
<stop stop-color="#D9D9D9"/>
<stop offset="1" stop-color="#737373"/>
</linearGradient>
<linearGradient id="paint5_linear_0_1" x1="27.5" y1="434.5" x2="148.5" y2="787" gradientUnits="userSpaceOnUse">
<stop stop-color="#2E21BC"/>
<stop offset="1" stop-color="#150F56"/>
</linearGradient>
<clipPath id="clip0_0_1">
<rect width="1584" height="396" fill="white"/>
</clipPath>
</defs>
</svg>
