<svg width="1584" height="396" viewBox="0 0 1584 396" fill="none" xmlns="http://www.w3.org/2000/svg">
<rect width="1584" height="396" fill="#F5F5F5"/>
<g id="Awesome banner" clip-path="url(#clip0_0_1)">
<rect width="1584" height="396" fill="url(#paint0_linear_0_1)"/>
<ellipse id="Ellipse 2" cx="323" cy="64" rx="285" ry="288" fill="url(#paint1_linear_0_1)" fill-opacity="0.1"/>
<g id="copyright">
<path d="M75.95 334.52L72.30 334.52L72.30 311.16L77.20 311.16L83.70 330.04Q83.60 329.02 83.50 327.62Q83.41 326.23 83.33 324.79Q83.25 323.35 83.25 322.23L83.25 311.16L86.90 311.16L86.90 334.52L82 334.52L75.57 315.64Q75.63 316.57 75.73 317.88Q75.82 319.19 75.89 320.57Q75.95 321.94 75.95 323.10L75.95 334.52M98.80 334.84Q96.46 334.84 94.67 333.96Q92.88 333.08 91.89 331.53Q90.90 329.98 90.90 327.93Q90.90 325.78 92.13 324.18Q93.36 322.58 95.34 322.17L95.34 322.10Q93.65 321.75 92.61 320.38Q91.57 319 91.57 317.11Q91.57 315.26 92.48 313.85Q93.39 312.44 95.02 311.64Q96.66 310.84 98.80 310.84Q100.94 310.84 102.59 311.64Q104.24 312.44 105.15 313.85Q106.06 315.26 106.06 317.11Q106.06 319 105.01 320.38Q103.95 321.75 102.26 322.10L102.26 322.17Q104.24 322.58 105.47 324.18Q106.70 325.78 106.70 327.93Q106.70 329.98 105.71 331.53Q104.72 333.08 102.93 333.96Q101.14 334.84 98.80 334.84M98.80 320.73Q100.30 320.73 101.23 319.82Q102.16 318.90 102.16 317.46Q102.16 315.99 101.23 315.08Q100.30 314.17 98.80 314.17Q97.30 314.17 96.37 315.08Q95.44 315.99 95.44 317.46Q95.44 318.90 96.37 319.82Q97.30 320.73 98.80 320.73M98.80 331.45Q100.56 331.45 101.68 330.42Q102.80 329.40 102.80 327.74Q102.80 326.04 101.68 325Q100.56 323.96 98.80 323.96Q97.04 323.96 95.92 325Q94.80 326.04 94.80 327.74Q94.80 329.40 95.92 330.42Q97.04 331.45 98.80 331.45M114.35 334.52L110.70 334.52L110.70 311.16L115.60 311.16L122.10 330.04Q122 329.02 121.90 327.62Q121.81 326.23 121.73 324.79Q121.65 323.35 121.65 322.23L121.65 311.16L125.30 311.16L125.30 334.52L120.40 334.52L113.97 315.64Q114.03 316.57 114.13 317.88Q114.22 319.19 114.29 320.57Q114.35 321.94 114.35 323.10" fill="white" fill-opacity="0.9"/>
<path d="M161.48 325.24L151.24 325.24L151.24 322.68L161.48 322.68" fill="white" fill-opacity="0.9"/>
<path d="M195.02 334.84Q191.82 334.84 189.96 333.05Q188.11 331.26 188.11 328.12L188.11 317.56Q188.11 314.42 189.96 312.63Q191.82 310.84 195.02 310.84Q198.15 310.84 200.01 312.65Q201.87 314.46 201.87 317.56L198.99 317.56Q198.99 315.58 197.95 314.50Q196.91 313.43 195.02 313.43Q193.13 313.43 192.06 314.50Q190.99 315.58 190.99 317.56L190.99 328.12Q190.99 330.10 192.06 331.18Q193.13 332.25 195.02 332.25Q196.91 332.25 197.95 331.18Q198.99 330.10 198.99 328.12L201.87 328.12Q201.87 331.22 200.01 333.03Q198.15 334.84 195.02 334.84" fill="white" fill-opacity="0.9"/>
<path d="M213.96 334.84Q210.83 334.84 209 333.02Q207.18 331.19 207.18 327.80L207.18 317.88Q207.18 314.49 209 312.66Q210.83 310.84 213.96 310.84Q217.10 310.84 218.92 312.66Q220.75 314.49 220.75 317.85L220.75 327.80Q220.75 331.19 218.92 333.02Q217.10 334.84 213.96 334.84M213.96 332.25Q215.85 332.25 216.86 331.18Q217.87 330.10 217.87 328.12L217.87 317.56Q217.87 315.58 216.86 314.50Q215.85 313.43 213.96 313.43Q212.11 313.43 211.08 314.50Q210.06 315.58 210.06 317.56L210.06 328.12Q210.06 330.10 211.08 331.18Q212.11 332.25 213.96 332.25" fill="white" fill-opacity="0.9"/>
<path d="M228.65 334.52L225.87 334.52L225.87 311.16L230.12 311.16L233.10 321.27L236.20 311.16L240.46 311.16L240.46 334.52L237.67 334.52L237.67 323.48Q237.67 321.91 237.72 319.88Q237.77 317.85 237.87 315.77Q237.96 313.69 238.09 312.02L234.31 324.09L231.82 324.09L228.20 312.31Q228.46 314.68 228.55 317.50Q228.65 320.31 228.65 323.48" fill="white" fill-opacity="0.9"/>
<path d="M247.85 334.52L245.07 334.52L245.07 311.16L249.32 311.16L252.30 321.27L255.40 311.16L259.66 311.16L259.66 334.52L256.87 334.52L256.87 323.48Q256.87 321.91 256.92 319.88Q256.97 317.85 257.07 315.77Q257.16 313.69 257.29 312.02L253.51 324.09L251.02 324.09L247.40 312.31Q247.66 314.68 247.75 317.50Q247.85 320.31 247.85 323.48" fill="white" fill-opacity="0.9"/>
<path d="M271.56 334.84Q268.30 334.84 266.57 333.03Q264.84 331.22 264.84 328.12L264.84 311.16L267.72 311.16L267.72 328.12Q267.72 330.04 268.67 331.16Q269.61 332.28 271.56 332.28Q273.48 332.28 274.44 331.16Q275.40 330.04 275.40 328.12L275.40 311.16L278.28 311.16L278.28 328.12Q278.28 331.26 276.57 333.05Q274.86 334.84 271.56 334.84" fill="white" fill-opacity="0.9"/>
<path d="M286.83 334.52L284.04 334.52L284.04 311.16L287.88 311.16L295.02 331.16Q294.95 330.36 294.87 329.19Q294.79 328.02 294.75 326.73Q294.70 325.43 294.70 324.28L294.70 311.16L297.48 311.16L297.48 334.52L293.64 334.52L286.54 314.52Q286.60 315.29 286.67 316.46Q286.73 317.62 286.78 318.92Q286.83 320.22 286.83 321.40" fill="white" fill-opacity="0.9"/>
<path d="M316.20 334.52L303.72 334.52L303.72 331.90L308.49 331.90L308.49 313.78L303.72 313.78L303.72 311.16L316.20 311.16L316.20 313.78L311.43 313.78L311.43 331.90L316.20 331.90" fill="white" fill-opacity="0.9"/>
<path d="M330.60 334.52L327.72 334.52L327.72 313.78L321.32 313.78L321.32 311.16L337 311.16L337 313.78L330.60 313.78" fill="white" fill-opacity="0.9"/>
<path d="M349.80 334.52L346.92 334.52L346.92 325.78L339.88 311.16L342.95 311.16L347.50 320.76Q347.88 321.56 348.11 322.12Q348.33 322.68 348.39 322.94Q348.46 322.68 348.70 322.12Q348.94 321.56 349.32 320.76L353.87 311.16L356.84 311.16L349.80 325.78" fill="white" fill-opacity="0.9"/>
<path d="M382.83 334.52L380.04 334.52L380.04 311.16L383.88 311.16L391.02 331.16Q390.95 330.36 390.87 329.19Q390.79 328.02 390.75 326.73Q390.70 325.43 390.70 324.28L390.70 311.16L393.48 311.16L393.48 334.52L389.64 334.52L382.54 314.52Q382.60 315.29 382.67 316.46Q382.73 317.62 382.78 318.92Q382.83 320.22 382.83 321.40" fill="white" fill-opacity="0.9"/>
<path d="M405.96 334.84Q402.83 334.84 401 333.02Q399.18 331.19 399.18 327.80L399.18 317.88Q399.18 314.49 401 312.66Q402.83 310.84 405.96 310.84Q409.10 310.84 410.92 312.66Q412.75 314.49 412.75 317.85L412.75 327.80Q412.75 331.19 410.92 333.02Q409.10 334.84 405.96 334.84M405.96 332.25Q407.85 332.25 408.86 331.18Q409.87 330.10 409.87 328.12L409.87 317.56Q409.87 315.58 408.86 314.50Q407.85 313.43 405.96 313.43Q404.11 313.43 403.08 314.50Q402.06 315.58 402.06 317.56L402.06 328.12Q402.06 330.10 403.08 331.18Q404.11 332.25 405.96 332.25" fill="white" fill-opacity="0.9"/>
<path d="M424.55 334.52L418.51 334.52L418.51 311.16L424.55 311.16Q426.83 311.16 428.47 312.02Q430.12 312.89 431.03 314.46Q431.95 316.02 431.95 318.17L431.95 327.48Q431.95 329.62 431.03 331.21Q430.12 332.79 428.47 333.66Q426.83 334.52 424.55 334.52M421.39 313.72L421.39 331.96L424.55 331.96Q426.67 331.96 427.87 330.78Q429.07 329.59 429.07 327.48L429.07 318.17Q429.07 316.09 427.87 314.90Q426.67 313.72 424.55 313.72" fill="white" fill-opacity="0.9"/>
<path d="M451.40 334.52L437.96 334.52L437.96 311.16L451.40 311.16L451.40 313.78L440.81 313.78L440.81 321.02L450.28 321.02L450.28 323.58L440.81 323.58L440.81 331.90L451.40 331.90" fill="white" fill-opacity="0.9"/>
<path d="M463.69 334.84Q460.30 334.84 458.28 333.05Q456.27 331.26 456.27 328.12L459.15 328.12Q459.15 330.07 460.39 331.18Q461.64 332.28 463.69 332.28Q465.67 332.28 466.86 331.13Q468.04 329.98 468.04 328.12Q468.04 326.71 467.29 325.67Q466.54 324.63 465.13 324.25L461.58 323.26Q459.37 322.62 458.11 320.97Q456.84 319.32 456.84 317.08Q456.84 315.22 457.67 313.82Q458.51 312.41 460.01 311.62Q461.51 310.84 463.47 310.84Q465.45 310.84 466.97 311.62Q468.49 312.41 469.35 313.80Q470.22 315.19 470.22 317.02L467.34 317.02Q467.34 315.42 466.25 314.41Q465.16 313.40 463.47 313.40Q461.77 313.40 460.71 314.41Q459.66 315.42 459.66 317.02Q459.66 318.30 460.35 319.21Q461.03 320.12 462.28 320.47L465.93 321.50Q468.27 322.14 469.56 323.91Q470.86 325.69 470.86 328.12Q470.86 331.19 468.91 333.02Q466.95 334.84 463.69 334.84" fill="white" fill-opacity="0.9"/>
</g>
<path d="M73.41 197.64L71.20 197.64L75.76 180.12L78.66 180.12L83.20 197.64L81.02 197.64L79.86 192.98L74.56 192.98L73.41 197.64M76.34 185.74L74.99 191.16L79.41 191.16L78.06 185.76Q77.68 184.22 77.46 183.19Q77.25 182.16 77.20 181.85Q77.15 182.16 76.94 183.19Q76.72 184.22 76.34 185.74" fill="white" fill-opacity="0.7"/>
<path d="M90.83 197.88Q88.86 197.88 87.68 196.56Q86.49 195.24 86.49 192.98L86.49 189.12Q86.49 186.84 87.66 185.52Q88.84 184.20 90.83 184.20Q92.32 184.20 93.29 184.94Q94.26 185.69 94.46 186.96L94.48 186.96L94.43 183.96L94.43 180.12L96.59 180.12L96.59 197.64L94.43 197.64L94.43 195.12L94.41 195.12Q94.24 196.42 93.28 197.15Q92.32 197.88 90.83 197.88M91.55 196.01Q92.90 196.01 93.66 195.17Q94.43 194.33 94.43 192.84L94.43 189.24Q94.43 187.75 93.66 186.91Q92.90 186.07 91.55 186.07Q90.18 186.07 89.42 186.78Q88.65 187.49 88.65 189.12L88.65 192.96Q88.65 194.57 89.42 195.29Q90.18 196.01 91.55 196.01" fill="white" fill-opacity="0.7"/>
<path d="M105.33 201.96L103.07 201.96L105.02 196.82L100.10 184.44L102.42 184.44L105.54 192.60Q105.74 193.08 105.90 193.61Q106.07 194.14 106.14 194.52Q106.22 194.14 106.38 193.61Q106.55 193.08 106.72 192.60L109.62 184.44L111.90 184.44" fill="white" fill-opacity="0.7"/>
<path d="M120.40 197.88Q118.07 197.88 116.64 196.48Q115.22 195.07 115.22 192.60L115.22 189.48Q115.22 187.01 116.64 185.60Q118.07 184.20 120.40 184.20Q121.96 184.20 123.12 184.82Q124.29 185.45 124.94 186.58Q125.58 187.70 125.58 189.24L125.58 191.59L117.33 191.59L117.33 192.84Q117.33 194.30 118.17 195.16Q119.01 196.01 120.40 196.01Q121.60 196.01 122.38 195.54Q123.16 195.07 123.33 194.28L125.49 194.28Q125.27 195.94 123.88 196.91Q122.49 197.88 120.40 197.88M117.33 189.24L117.33 189.91L123.47 189.91L123.47 189.24Q123.47 187.68 122.67 186.83Q121.86 185.98 120.40 185.98Q118.94 185.98 118.13 186.83Q117.33 187.68 117.33 189.24" fill="white" fill-opacity="0.7"/>
<path d="M131.97 197.64L129.81 197.64L129.81 184.44L131.97 184.44L131.97 186.96L131.99 186.96Q132.16 185.64 133.07 184.92Q133.98 184.20 135.50 184.20Q137.49 184.20 138.66 185.42Q139.84 186.65 139.84 188.76L139.84 197.64L137.68 197.64L137.68 189.14Q137.68 187.63 136.92 186.83Q136.17 186.02 134.87 186.02Q133.53 186.02 132.75 186.86Q131.97 187.70 131.97 189.24" fill="white" fill-opacity="0.7"/>
<path d="M163.14 197.64L158.61 197.64L158.61 180.12L163.14 180.12Q164.85 180.12 166.08 180.77Q167.32 181.42 168 182.59Q168.69 183.77 168.69 185.38L168.69 192.36Q168.69 193.97 168 195.16Q167.32 196.34 166.08 196.99Q164.85 197.64 163.14 197.64M160.77 182.04L160.77 195.72L163.14 195.72Q164.73 195.72 165.63 194.83Q166.53 193.94 166.53 192.36L166.53 185.38Q166.53 183.82 165.63 182.93Q164.73 182.04 163.14 182.04" fill="white" fill-opacity="0.7"/>
<path d="M176.85 197.88Q174.81 197.88 173.61 196.74Q172.41 195.60 172.41 193.75Q172.41 192.53 172.96 191.62Q173.51 190.70 174.50 190.19Q175.48 189.67 176.75 189.67L180.83 189.67L180.83 188.64Q180.83 186.07 178.02 186.07Q176.78 186.07 176.01 186.53Q175.24 186.98 175.19 187.80L173.03 187.80Q173.15 186.24 174.48 185.22Q175.82 184.20 178.02 184.20Q180.42 184.20 181.71 185.35Q182.99 186.50 182.99 188.57L182.99 197.64L180.86 197.64L180.86 195.24L180.81 195.24Q180.62 196.46 179.58 197.17Q178.55 197.88 176.85 197.88M177.38 196.06Q178.96 196.06 179.90 195.29Q180.83 194.52 180.83 193.20L180.83 191.35L176.99 191.35Q175.94 191.35 175.28 191.99Q174.62 192.62 174.62 193.68Q174.62 194.78 175.35 195.42Q176.08 196.06 177.38 196.06" fill="white" fill-opacity="0.7"/>
<path d="M197.56 197.64L193.72 197.64Q192.09 197.64 191.10 196.69Q190.12 195.74 190.12 194.16L190.12 186.41L186.33 186.41L186.33 184.44L190.12 184.44L190.12 180.72L192.28 180.72L192.28 184.44L197.68 184.44L197.68 186.41L192.28 186.41L192.28 194.16Q192.28 194.83 192.68 195.25Q193.07 195.67 193.72 195.67L197.56 195.67" fill="white" fill-opacity="0.7"/>
<path d="M205.65 197.88Q203.61 197.88 202.41 196.74Q201.21 195.60 201.21 193.75Q201.21 192.53 201.76 191.62Q202.31 190.70 203.30 190.19Q204.28 189.67 205.55 189.67L209.63 189.67L209.63 188.64Q209.63 186.07 206.82 186.07Q205.58 186.07 204.81 186.53Q204.04 186.98 203.99 187.80L201.83 187.80Q201.95 186.24 203.28 185.22Q204.62 184.20 206.82 184.20Q209.22 184.20 210.51 185.35Q211.79 186.50 211.79 188.57L211.79 197.64L209.66 197.64L209.66 195.24L209.61 195.24Q209.42 196.46 208.38 197.17Q207.35 197.88 205.65 197.88M206.18 196.06Q207.76 196.06 208.70 195.29Q209.63 194.52 209.63 193.20L209.63 191.35L205.79 191.35Q204.74 191.35 204.08 191.99Q203.42 192.62 203.42 193.68Q203.42 194.78 204.15 195.42Q204.88 196.06 206.18 196.06" fill="white" fill-opacity="0.7"/>
<path d="M232.77 197.64L230.61 197.64L230.61 180.12L236.25 180.12Q238.70 180.12 240.15 181.52Q241.60 182.93 241.60 185.28Q241.60 187.63 240.15 189.04Q238.70 190.44 236.25 190.44L232.77 190.44L232.77 197.64M232.77 182.06L232.77 188.50L236.25 188.50Q237.66 188.50 238.52 187.62Q239.37 186.74 239.37 185.28Q239.37 183.79 238.52 182.93Q237.66 182.06 236.25 182.06" fill="white" fill-opacity="0.7"/>
<path d="M247.65 197.64L245.49 197.64L245.49 184.44L247.65 184.44L247.65 186.96L247.70 186.96Q247.86 185.69 248.78 184.94Q249.69 184.20 251.22 184.20Q253.29 184.20 254.40 185.44Q255.52 186.67 255.52 188.95L255.52 190.08L253.36 190.08L253.36 188.95Q253.36 186.07 250.55 186.07Q249.14 186.07 248.39 186.89Q247.65 187.70 247.65 189.24" fill="white" fill-opacity="0.7"/>
<path d="M264.40 197.83Q262.02 197.83 260.62 196.44Q259.22 195.05 259.22 192.55L259.22 189.53Q259.22 187.01 260.61 185.63QNaN 184.25 264.40 184.25Q266.80 184.25 268.19 185.63Q269.58 187.01 269.58 189.53L269.58 192.55Q269.58 195.05 268.18 196.44Q266.78 197.83 264.40 197.83M264.40 195.91Q265.82 195.91 266.62 195.12Q267.42 194.33 267.42 192.79L267.42 189.29Q267.42 187.75 266.62 186.96Q265.82 186.17 264.40 186.17Q263.01 186.17 262.19 186.96Q261.38 187.75 261.38 189.29L261.38 192.79Q261.38 194.33 262.19 195.12Q263.01 195.91 264.40 195.91" fill="white" fill-opacity="0.7"/>
<path d="M283.96 197.64L280.12 197.64Q278.49 197.64 277.50 196.69Q276.52 195.74 276.52 194.16L276.52 186.41L272.73 186.41L272.73 184.44L276.52 184.44L276.52 180.72L278.68 180.72L278.68 184.44L284.08 184.44L284.08 186.41L278.68 186.41L278.68 194.16Q278.68 194.83 279.08 195.25Q279.47 195.67 280.12 195.67L283.96 195.67" fill="white" fill-opacity="0.7"/>
<path d="M293.20 197.88Q290.87 197.88 289.44 196.48Q288.02 195.07 288.02 192.60L288.02 189.48Q288.02 187.01 289.44 185.60Q290.87 184.20 293.20 184.20Q294.76 184.20 295.92 184.82Q297.09 185.45 297.74 186.58Q298.38 187.70 298.38 189.24L298.38 191.59L290.13 191.59L290.13 192.84Q290.13 194.30 290.97 195.16Q291.81 196.01 293.20 196.01Q294.40 196.01 295.18 195.54Q295.96 195.07 296.13 194.28L298.29 194.28Q298.07 195.94 296.68 196.91Q295.29 197.88 293.20 197.88M290.13 189.24L290.13 189.91L296.27 189.91L296.27 189.24Q296.27 187.68 295.47 186.83Q294.66 185.98 293.20 185.98Q291.74 185.98 290.93 186.83Q290.13 187.68 290.13 189.24" fill="white" fill-opacity="0.7"/>
<path d="M307.79 197.88Q305.39 197.88 303.95 196.54Q302.51 195.19 302.51 192.84L302.51 189.24Q302.51 186.89 303.95 185.54Q305.39 184.20 307.79 184.20Q310.07 184.20 311.48 185.42Q312.88 186.65 312.95 188.76L310.79 188.76Q310.72 187.49 309.93 186.80Q309.14 186.12 307.79 186.12Q306.38 186.12 305.52 186.92Q304.67 187.73 304.67 189.22L304.67 192.84Q304.67 194.33 305.52 195.14Q306.38 195.96 307.79 195.96Q309.14 195.96 309.93 195.26Q310.72 194.57 310.79 193.32L312.95 193.32Q312.88 195.43 311.48 196.66Q310.07 197.88 307.79 197.88" fill="white" fill-opacity="0.7"/>
<path d="M327.16 197.64L323.32 197.64Q321.69 197.64 320.70 196.69Q319.72 195.74 319.72 194.16L319.72 186.41L315.93 186.41L315.93 184.44L319.72 184.44L319.72 180.72L321.88 180.72L321.88 184.44L327.28 184.44L327.28 186.41L321.88 186.41L321.88 194.16Q321.88 194.83 322.28 195.25Q322.67 195.67 323.32 195.67L327.16 195.67" fill="white" fill-opacity="0.7"/>
<path d="M342.52 197.64L331.24 197.64L331.24 195.67L335.92 195.67L335.92 186.41L331.72 186.41L331.72 184.44L338.08 184.44L338.08 195.67L342.52 195.67L342.52 197.64M336.76 182.06Q335.97 182.06 335.51 181.66Q335.06 181.25 335.06 180.55Q335.06 179.83 335.51 179.41Q335.97 178.99 336.76 178.99Q337.55 178.99 338.01 179.41Q338.46 179.83 338.46 180.55Q338.46 181.25 338.01 181.66Q337.55 182.06 336.76 182.06" fill="white" fill-opacity="0.7"/>
<path d="M350.80 197.83Q348.42 197.83 347.02 196.44Q345.62 195.05 345.62 192.55L345.62 189.53Q345.62 187.01 347.01 185.63Q348.40 184.25 350.80 184.25Q353.20 184.25 354.59 185.63Q355.98 187.01 355.98 189.53L355.98 192.55Q355.98 195.05 354.58 196.44Q353.18 197.83 350.80 197.83M350.80 195.91Q352.22 195.91 353.02 195.12Q353.82 194.33 353.82 192.79L353.82 189.29Q353.82 187.75 353.02 186.96Q352.22 186.17 350.80 186.17Q349.41 186.17 348.59 186.96Q347.78 187.75 347.78 189.29L347.78 192.79Q347.78 194.33 348.59 195.12Q349.41 195.91 350.80 195.91" fill="white" fill-opacity="0.7"/>
<path d="M362.37 197.64L360.21 197.64L360.21 184.44L362.37 184.44L362.37 186.96L362.39 186.96Q362.56 185.64 363.47 184.92Q364.38 184.20 365.90 184.20Q367.89 184.20 369.06 185.42Q370.24 186.65 370.24 188.76L370.24 197.64L368.08 197.64L368.08 189.14Q368.08 187.63 367.32 186.83Q366.57 186.02 365.27 186.02Q363.93 186.02 363.15 186.86Q362.37 187.70 362.37 189.24" fill="white" fill-opacity="0.7"/>
<path d="M390.21 197.64L388 197.64L392.56 180.12L395.46 180.12L400 197.64L397.82 197.64L396.66 192.98L391.36 192.98L390.21 197.64M393.14 185.74L391.79 191.16L396.21 191.16L394.86 185.76Q394.48 184.22 394.26 183.19Q394.05 182.16 394 181.85Q393.95 182.16 393.74 183.19Q393.52 184.22 393.14 185.74" fill="white" fill-opacity="0.7"/>
<path d="M405.57 197.64L403.41 197.64L403.41 180.12L409.05 180.12Q411.50 180.12 412.95 181.52Q414.40 182.93 414.40 185.28Q414.40 187.63 412.95 189.04Q411.50 190.44 409.05 190.44L405.57 190.44L405.57 197.64M405.57 182.06L405.57 188.50L409.05 188.50Q410.46 188.50 411.32 187.62Q412.17 186.74 412.17 185.28Q412.17 183.79 411.32 182.93Q410.46 182.06 409.05 182.06" fill="white" fill-opacity="0.7"/>
<path d="M427.48 197.64L418.12 197.64L418.12 195.67L421.70 195.67L421.70 182.09L418.12 182.09L418.12 180.12L427.48 180.12L427.48 182.09L423.90 182.09L423.90 195.67L427.48 195.67" fill="white" fill-opacity="0.7"/>
<path d="M448.77 201.96L446.61 201.96L446.61 184.44L448.77 184.44L448.77 186.96L448.79 186.96Q448.96 185.66 449.92 184.93Q450.88 184.20 452.37 184.20Q454.36 184.20 455.54 185.51Q456.71 186.82 456.71 189.10L456.71 192.96Q456.71 195.24 455.54 196.56Q454.36 197.88 452.37 197.88Q450.88 197.88 449.92 197.14Q448.96 196.39 448.79 195.12L448.72 195.12L448.77 198.12L448.77 201.96M451.65 196.01Q453.02 196.01 453.78 195.29Q454.55 194.57 454.55 192.96L454.55 189.12Q454.55 187.49 453.78 186.78Q453.02 186.07 451.65 186.07Q450.33 186.07 449.55 186.91Q448.77 187.75 448.77 189.24L448.77 192.84Q448.77 194.33 449.55 195.17Q450.33 196.01 451.65 196.01" fill="white" fill-opacity="0.7"/>
<path d="M463.65 197.64L461.49 197.64L461.49 184.44L463.65 184.44L463.65 186.96L463.70 186.96Q463.86 185.69 464.78 184.94Q465.69 184.20 467.22 184.20Q469.29 184.20 470.40 185.44Q471.52 186.67 471.52 188.95L471.52 190.08L469.36 190.08L469.36 188.95Q469.36 186.07 466.55 186.07Q465.14 186.07 464.39 186.89Q463.65 187.70 463.65 189.24" fill="white" fill-opacity="0.7"/>
<path d="M480.40 197.83Q478.02 197.83 476.62 196.44Q475.22 195.05 475.22 192.55L475.22 189.53Q475.22 187.01 476.61 185.63Q478 184.25 480.40 184.25Q482.80 184.25 484.19 185.63Q485.58 187.01 485.58 189.53L485.58 192.55Q485.58 195.05 484.18 196.44Q482.78 197.83 480.40 197.83M480.40 195.91Q481.82 195.91 482.62 195.12Q483.42 194.33 483.42 192.79L483.42 189.29Q483.42 187.75 482.62 186.96Q481.82 186.17 480.40 186.17Q479.01 186.17 478.19 186.96Q477.38 187.75 477.38 189.29L477.38 192.79Q477.38 194.33 478.19 195.12Q479.01 195.91 480.40 195.91" fill="white" fill-opacity="0.7"/>
<path d="M496.22 197.64L493.38 197.64L488.90 184.44L491.22 184.44L494.10 193.32Q494.37 194.11 494.56 194.84Q494.75 195.58 494.85 195.98Q494.97 195.58 495.14 194.84Q495.30 194.11 495.54 193.32L498.42 184.44L500.70 184.44" fill="white" fill-opacity="0.7"/>
<path d="M515.32 197.64L504.04 197.64L504.04 195.67L508.72 195.67L508.72 186.41L504.52 186.41L504.52 184.44L510.88 184.44L510.88 195.67L515.32 195.67L515.32 197.64M509.56 182.06Q508.77 182.06 508.31 181.66Q507.86 181.25 507.86 180.55Q507.86 179.83 508.31 179.41Q508.77 178.99 509.56 178.99Q510.35 178.99 510.81 179.41Q511.26 179.83 511.26 180.55Q511.26 181.25 510.81 181.66Q510.35 182.06 509.56 182.06" fill="white" fill-opacity="0.7"/>
<path d="M522.83 197.88Q520.86 197.88 519.68 196.56Q518.49 195.24 518.49 192.98L518.49 189.12Q518.49 186.84 519.66 185.52Q520.84 184.20 522.83 184.20Q524.32 184.20 525.29 184.94Q526.26 185.69 526.46 186.96L526.48 186.96L526.43 183.96L526.43 180.12L528.59 180.12L528.59 197.64L526.43 197.64L526.43 195.12L526.41 195.12Q526.24 196.42 525.28 197.15Q524.32 197.88 522.83 197.88M523.55 196.01Q524.90 196.01 525.66 195.17Q526.43 194.33 526.43 192.84L526.43 189.24Q526.43 187.75 525.66 186.91Q524.90 186.07 523.55 186.07Q522.18 186.07 521.42 186.78Q520.65 187.49 520.65 189.12L520.65 192.96Q520.65 194.57 521.42 195.29Q522.18 196.01 523.55 196.01" fill="white" fill-opacity="0.7"/>
<path d="M538 197.88Q535.67 197.88 534.24 196.48Q532.82 195.07 532.82 192.60L532.82 189.48Q532.82 187.01 534.24 185.60Q535.67 184.20 538 184.20Q539.56 184.20 540.72 184.82Q541.89 185.45 542.54 186.58Q543.18 187.70 543.18 189.24L543.18 191.59L534.93 191.59L534.93 192.84Q534.93 194.30 535.77 195.16Q536.61 196.01 538 196.01Q539.20 196.01 539.98 195.54Q540.76 195.07 540.93 194.28L543.09 194.28Q542.87 195.94 541.48 196.91Q540.09 197.88 538 197.88M534.93 189.24L534.93 189.91L541.07 189.91L541.07 189.24Q541.07 187.68 540.27 186.83Q539.46 185.98 538 185.98Q536.54 185.98 535.73 186.83Q534.93 187.68 534.93 189.24" fill="white" fill-opacity="0.7"/>
<path d="M552.93 197.83L551.87 197.83Q549.66 197.83 548.45 196.84Q547.24 195.84 547.24 194.02L549.40 194.02Q549.40 194.93 550.05 195.44Q550.70 195.96 551.87 195.96L552.93 195.96Q554.13 195.96 554.79 195.43Q555.45 194.90 555.45 193.94Q555.45 192.24 553.89 192.02L550.24 191.50Q548.90 191.30 548.15 190.38Q547.41 189.46 547.41 187.94Q547.41 186.22 548.60 185.23Q549.78 184.25 551.87 184.25L552.93 184.25Q554.85 184.25 556.06 185.20Q557.27 186.14 557.37 187.68L555.18 187.68Q555.14 186.98 554.52 186.53Q553.91 186.07 552.93 186.07L551.87 186.07Q550.77 186.07 550.14 186.58Q549.52 187.08 549.52 187.94Q549.52 189.34 550.79 189.53L554.20 190.01Q557.56 190.49 557.56 193.94Q557.56 195.79 556.35 196.81Q555.14 197.83 552.93 197.83" fill="white" fill-opacity="0.7"/>
<path d="M580.05 197.88Q578.01 197.88 576.81 196.74Q575.61 195.60 575.61 193.75Q575.61 192.53 576.16 191.62Q576.71 190.70 577.70 190.19Q578.68 189.67 579.95 189.67L584.03 189.67L584.03 188.64Q584.03 186.07 581.22 186.07Q579.98 186.07 579.21 186.53Q578.44 186.98 578.39 187.80L576.23 187.80Q576.35 186.24 577.68 185.22Q579.02 184.20 581.22 184.20Q583.62 184.20 584.91 185.35Q586.19 186.50 586.19 188.57L586.19 197.64L584.06 197.64L584.06 195.24L584.01 195.24Q583.82 196.46 582.78 197.17Q581.75 197.88 580.05 197.88M580.58 196.06Q582.16 196.06 583.10 195.29Q584.03 194.52 584.03 193.20L584.03 191.35L580.19 191.35Q579.14 191.35 578.48 191.99Q577.82 192.62 577.82 193.68Q577.82 194.78 578.55 195.42Q579.28 196.06 580.58 196.06" fill="white" fill-opacity="0.7"/>
<path d="M608.08 197.64L605.70 197.64L603.54 184.44L605.42 184.44L606.76 193.75Q606.83 194.28 606.90 194.92Q606.98 195.55 607 195.96Q607.05 195.55 607.11 194.92Q607.17 194.28 607.26 193.75L608.92 184.44L611.08 184.44L612.74 193.75Q612.83 194.28 612.92 194.92Q613 195.55 613.02 195.96Q613.07 195.55 613.14 194.92Q613.22 194.28 613.29 193.75L614.68 184.44L616.46 184.44L614.20 197.64L611.82 197.64L610.31 188.52Q610.22 187.85 610.13 187.09Q610.05 186.34 610 185.93Q609.98 186.34 609.88 187.09Q609.78 187.85 609.66 188.52" fill="white" fill-opacity="0.7"/>
<path d="M623.25 197.88Q621.21 197.88 620.01 196.74Q618.81 195.60 618.81 193.75Q618.81 192.53 619.36 191.62Q619.91 190.70 620.90 190.19Q621.88 189.67 623.15 189.67L627.23 189.67L627.23 188.64Q627.23 186.07 624.42 186.07Q623.18 186.07 622.41 186.53Q621.64 186.98 621.59 187.80L619.43 187.80Q619.55 186.24 620.88 185.22Q622.22 184.20 624.42 184.20Q626.82 184.20 628.11 185.35Q629.39 186.50 629.39 188.57L629.39 197.64L627.26 197.64L627.26 195.24L627.21 195.24Q627.02 196.46 625.98 197.17Q624.95 197.88 623.25 197.88M623.78 196.06Q625.36 196.06 626.30 195.29Q627.23 194.52 627.23 193.20L627.23 191.35L623.39 191.35Q622.34 191.35 621.68 191.99Q621.02 192.62 621.02 193.68Q621.02 194.78 621.75 195.42Q622.48 196.06 623.78 196.06" fill="white" fill-opacity="0.7"/>
<path d="M638.13 201.96L635.87 201.96L637.82 196.82L632.90 184.44L635.22 184.44L638.34 192.60Q638.54 193.08 638.70 193.61Q638.87 194.14 638.94 194.52Q639.02 194.14 639.18 193.61Q639.35 193.08 639.52 192.60L642.42 184.44L644.70 184.44" fill="white" fill-opacity="0.7"/>
<path d="M667.72 197.64L665.56 197.64L665.56 188.21L661.72 188.21L661.72 186.24L665.56 186.24L665.56 183.48Q665.56 181.92 666.54 181.02Q667.53 180.12 669.26 180.12L673.12 180.12L673.12 182.09L669.26 182.09Q667.72 182.09 667.72 183.48L667.72 186.24L673.12 186.24L673.12 188.21L667.72 188.21" fill="white" fill-opacity="0.7"/>
<path d="M682 197.83Q679.62 197.83 678.22 196.44Q676.82 195.05 676.82 192.55L676.82 189.53Q676.82 187.01 678.21 185.63Q679.60 184.25 682 184.25Q684.40 184.25 685.79 185.63Q687.18 187.01 687.18 189.53L687.18 192.55Q687.18 195.05 685.78 196.44Q684.38 197.83 682 197.83M682 195.91Q683.42 195.91 684.22 195.12Q685.02 194.33 685.02 192.79L685.02 189.29Q685.02 187.75 684.22 186.96Q683.42 186.17 682 186.17Q680.61 186.17 679.79 186.96Q678.98 187.75 678.98 189.29L678.98 192.79Q678.98 194.33 679.79 195.12Q680.61 195.91 682 195.91" fill="white" fill-opacity="0.7"/>
<path d="M694.05 197.64L691.89 197.64L691.89 184.44L694.05 184.44L694.05 186.96L694.10 186.96Q694.26 185.69 695.18 184.94Q696.09 184.20 697.62 184.20Q699.69 184.20 700.80 185.44Q701.92 186.67 701.92 188.95L701.92 190.08L699.76 190.08L699.76 188.95Q699.76 186.07 696.95 186.07Q695.54 186.07 694.79 186.89Q694.05 187.70 694.05 189.24" fill="white" fill-opacity="0.7"/>
<path d="M724.53 201.96L722.27 201.96L724.22 196.82L719.30 184.44L721.62 184.44L724.74 192.60Q724.94 193.08 725.10 193.61Q725.27 194.14 725.34 194.52Q725.42 194.14 725.58 193.61Q725.75 193.08 725.92 192.60L728.82 184.44L731.10 184.44" fill="white" fill-opacity="0.7"/>
<path d="M739.60 197.83Q737.22 197.83 735.82 196.44Q734.42 195.05 734.42 192.55L734.42 189.53Q734.42 187.01 735.81 185.63Q737.20 184.25 739.60 184.25Q742 184.25 743.39 185.63Q744.78 187.01 744.78 189.53L744.78 192.55Q744.78 195.05 743.38 196.44Q741.98 197.83 739.60 197.83M739.60 195.91Q741.02 195.91 741.82 195.12Q742.62 194.33 742.62 192.79L742.62 189.29Q742.62 187.75 741.82 186.96Q741.02 186.17 739.60 186.17Q738.21 186.17 737.39 186.96Q736.58 187.75 736.58 189.29L736.58 192.79Q736.58 194.33 737.39 195.12Q738.21 195.91 739.60 195.91" fill="white" fill-opacity="0.7"/>
<path d="M753.98 197.88Q751.70 197.88 750.33 196.52Q748.96 195.17 748.96 192.84L748.96 184.44L751.12 184.44L751.12 192.84Q751.12 194.28 751.89 195.13Q752.66 195.98 753.98 195.98Q755.32 195.98 756.10 195.13Q756.88 194.28 756.88 192.84L756.88 184.44L759.04 184.44L759.04 192.84Q759.04 195.17 757.65 196.52Q756.26 197.88 753.98 197.88" fill="white" fill-opacity="0.7"/>
<path d="M787.96 197.64L784.12 197.64Q782.49 197.64 781.50 196.69Q780.52 195.74 780.52 194.16L780.52 186.41L776.73 186.41L776.73 184.44L780.52 184.44L780.52 180.72L782.68 180.72L782.68 184.44L788.08 184.44L788.08 186.41L782.68 186.41L782.68 194.16Q782.68 194.83 783.08 195.25Q783.47 195.67 784.12 195.67L787.96 195.67" fill="white" fill-opacity="0.7"/>
<path d="M797.20 197.83Q794.82 197.83 793.42 196.44Q792.02 195.05 792.02 192.55L792.02 189.53Q792.02 187.01 793.41 185.63Q794.80 184.25 797.20 184.25Q799.60 184.25 800.99 185.63Q802.38 187.01 802.38 189.53L802.38 192.55Q802.38 195.05 800.98 196.44Q799.58 197.83 797.20 197.83M797.20 195.91Q798.62 195.91 799.42 195.12Q800.22 194.33 800.22 192.79L800.22 189.29Q800.22 187.75 799.42 186.96Q798.62 186.17 797.20 186.17Q795.81 186.17 794.99 186.96Q794.18 187.75 794.18 189.29L794.18 192.79Q794.18 194.33 794.99 195.12Q795.81 195.91 797.20 195.91" fill="white" fill-opacity="0.7"/>
<path d="M823.17 201.96L821.01 201.96L821.01 184.44L823.17 184.44L823.17 186.96L823.19 186.96Q823.36 185.66 824.32 184.93Q825.28 184.20 826.77 184.20Q828.76 184.20 829.94 185.51Q831.11 186.82 831.11 189.10L831.11 192.96Q831.11 195.24 829.94 196.56Q828.76 197.88 826.77 197.88Q825.28 197.88 824.32 197.14Q823.36 196.39 823.19 195.12L823.12 195.12L823.17 198.12L823.17 201.96M826.05 196.01Q827.42 196.01 828.18 195.29Q828.95 194.57 828.95 192.96L828.95 189.12Q828.95 187.49 828.18 186.78Q827.42 186.07 826.05 186.07Q824.73 186.07 823.95 186.91Q823.17 187.75 823.17 189.24L823.17 192.84Q823.17 194.33 823.95 195.17Q824.73 196.01 826.05 196.01" fill="white" fill-opacity="0.7"/>
<path d="M838.05 197.64L835.89 197.64L835.89 184.44L838.05 184.44L838.05 186.96L838.10 186.96Q838.26 185.69 839.18 184.94Q840.09 184.20 841.62 184.20Q843.69 184.20 844.80 185.44Q845.92 186.67 845.92 188.95L845.92 190.08L843.76 190.08L843.76 188.95Q843.76 186.07 840.95 186.07Q839.54 186.07 838.79 186.89Q838.05 187.70 838.05 189.24" fill="white" fill-opacity="0.7"/>
<path d="M854.80 197.83Q852.42 197.83 851.02 196.44Q849.62 195.05 849.62 192.55L849.62 189.53Q849.62 187.01 851.01 185.63Q852.40 184.25 854.80 184.25Q857.20 184.25 858.59 185.63Q859.98 187.01 859.98 189.53L859.98 192.55Q859.98 195.05 858.58 196.44Q857.18 197.83 854.80 197.83M854.80 195.91Q856.22 195.91 857.02 195.12Q857.82 194.33 857.82 192.79L857.82 189.29Q857.82 187.75 857.02 186.96Q856.22 186.17 854.80 186.17Q853.41 186.17 852.59 186.96Q851.78 187.75 851.78 189.29L851.78 192.79Q851.78 194.33 852.59 195.12Q853.41 195.91 854.80 195.91" fill="white" fill-opacity="0.7"/>
<path d="M869.39 197.88Q866.99 197.88 865.55 196.54Q864.11 195.19 864.11 192.84L864.11 189.24Q864.11 186.89 865.55 185.54Q866.99 184.20 869.39 184.20Q871.67 184.20 873.08 185.42Q874.48 186.65 874.55 188.76L872.39 188.76Q872.32 187.49 871.53 186.80Q870.74 186.12 869.39 186.12Q867.98 186.12 867.12 186.92Q866.27 187.73 866.27 189.22L866.27 192.84Q866.27 194.33 867.12 195.14Q867.98 195.96 869.39 195.96Q870.74 195.96 871.53 195.26Q872.32 194.57 872.39 193.32L874.55 193.32Q874.48 195.43 873.08 196.66Q871.67 197.88 869.39 197.88" fill="white" fill-opacity="0.7"/>
<path d="M883.60 197.88Q881.27 197.88 879.84 196.48Q878.42 195.07 878.42 192.60L878.42 189.48Q878.42 187.01 879.84 185.60Q881.27 184.20 883.60 184.20Q885.16 184.20 886.32 184.82Q887.49 185.45 888.14 186.58Q888.78 187.70 888.78 189.24L888.78 191.59L880.53 191.59L880.53 192.84Q880.53 194.30 881.37 195.16Q882.21 196.01 883.60 196.01Q884.80 196.01 885.58 195.54Q886.36 195.07 886.53 194.28L888.69 194.28Q888.47 195.94 887.08 196.91Q885.69 197.88 883.60 197.88M880.53 189.24L880.53 189.91L886.67 189.91L886.67 189.24Q886.67 187.68 885.87 186.83Q885.06 185.98 883.60 185.98Q882.14 185.98 881.33 186.83Q880.53 187.68 880.53 189.24" fill="white" fill-opacity="0.7"/>
<path d="M898.53 197.83L897.47 197.83Q895.26 197.83 894.05 196.84Q892.84 195.84 892.84 194.02L895 194.02Q895 194.93 895.65 195.44Q896.30 195.96 897.47 195.96L898.53 195.96Q899.73 195.96 900.39 195.43Q901.05 194.90 901.05 193.94Q901.05 192.24 899.49 192.02L895.84 191.50Q894.50 191.30 893.75 190.38Q893.01 189.46 893.01 187.94Q893.01 186.22 894.20 185.23Q895.38 184.25 897.47 184.25L898.53 184.25Q900.45 184.25 901.66 185.20Q902.87 186.14 902.97 187.68L900.78 187.68Q900.74 186.98 900.12 186.53Q899.51 186.07 898.53 186.07L897.47 186.07Q896.37 186.07 895.74 186.58Q895.12 187.08 895.12 187.94Q895.12 189.34 896.39 189.53L899.80 190.01Q903.16 190.49 903.16 193.94Q903.16 195.79 901.95 196.81Q900.74 197.83 898.53 197.83" fill="white" fill-opacity="0.7"/>
<path d="M912.93 197.83L911.87 197.83Q909.66 197.83 908.45 196.84Q907.24 195.84 907.24 194.02L909.40 194.02Q909.40 194.93 910.05 195.44Q910.70 195.96 911.87 195.96L912.93 195.96Q914.13 195.96 914.79 195.43Q915.45 194.90 915.45 193.94Q915.45 192.24 913.89 192.02L910.24 191.50Q908.90 191.30 908.15 190.38Q907.41 189.46 907.41 187.94Q907.41 186.22 908.60 185.23Q909.78 184.25 911.87 184.25L912.93 184.25Q914.85 184.25 916.06 185.20Q917.27 186.14 917.37 187.68L915.18 187.68Q915.14 186.98 914.52 186.53Q913.91 186.07 912.93 186.07L911.87 186.07Q910.77 186.07 910.14 186.58Q909.52 187.08 909.52 187.94Q909.52 189.34 910.79 189.53L914.20 190.01Q917.56 190.49 917.56 193.94Q917.56 195.79 916.35 196.81Q915.14 197.83 912.93 197.83" fill="white" fill-opacity="0.7"/>
<path d="M941.30 197.88Q938.75 197.88 937.24 196.54Q935.73 195.19 935.73 192.84L937.89 192.84Q937.89 194.30 938.82 195.13Q939.76 195.96 941.30 195.96Q942.78 195.96 943.67 195.10Q944.56 194.23 944.56 192.84Q944.56 191.78 944 191Q943.43 190.22 942.38 189.94L939.71 189.19Q938.06 188.71 937.11 187.48Q936.16 186.24 936.16 184.56Q936.16 183.17 936.78 182.11Q937.41 181.06 938.54 180.47Q939.66 179.88 941.13 179.88Q942.62 179.88 943.76 180.47Q944.90 181.06 945.54 182.10Q946.19 183.14 946.19 184.51L944.03 184.51Q944.03 183.31 943.22 182.56Q942.40 181.80 941.13 181.80Q939.86 181.80 939.06 182.56Q938.27 183.31 938.27 184.51Q938.27 185.47 938.79 186.16Q939.30 186.84 940.24 187.10L942.98 187.87Q944.73 188.35 945.70 189.68Q946.67 191.02 946.67 192.84Q946.67 195.14 945.21 196.51Q943.74 197.88 941.30 197.88" fill="white" fill-opacity="0.7"/>
<path d="M955.58 197.88Q953.30 197.88 951.93 196.52Q950.56 195.17 950.56 192.84L950.56 184.44L952.72 184.44L952.72 192.84Q952.72 194.28 953.49 195.13Q954.26 195.98 955.58 195.98Q956.92 195.98 957.70 195.13Q958.48 194.28 958.48 192.84L958.48 184.44L960.64 184.44L960.64 192.84Q960.64 195.17 959.25 196.52Q957.86 197.88 955.58 197.88" fill="white" fill-opacity="0.7"/>
<path d="M970.77 197.88Q969.28 197.88 968.32 197.15Q967.36 196.42 967.19 195.12L967.17 195.12L967.17 197.64L965.01 197.64L965.01 180.12L967.17 180.12L967.17 183.96L967.12 186.96L967.14 186.96Q967.34 185.69 968.31 184.94Q969.28 184.20 970.77 184.20Q972.76 184.20 973.94 185.52Q975.11 186.84 975.11 189.12L975.11 192.98Q975.11 195.24 973.94 196.56Q972.76 197.88 970.77 197.88M970.05 196.01Q971.42 196.01 972.18 195.29Q972.95 194.57 972.95 192.96L972.95 189.12Q972.95 187.49 972.18 186.78Q971.42 186.07 970.05 186.07Q968.73 186.07 967.95 186.91Q967.17 187.75 967.17 189.24L967.17 192.84Q967.17 194.33 967.95 195.17Q968.73 196.01 970.05 196.01" fill="white" fill-opacity="0.7"/>
<path d="M982.34 201.96L979.36 201.96L979.36 199.99L982.34 199.99Q983.82 199.99 984.65 199.18Q985.48 198.36 985.48 196.90L985.48 186.41L979.24 186.41L979.24 184.44L987.64 184.44L987.64 196.90Q987.64 199.22 986.20 200.59Q984.76 201.96 982.34 201.96M986.32 182.06Q985.53 182.06 985.07 181.66Q984.62 181.25 984.62 180.55Q984.62 179.83 985.07 179.41Q985.53 178.99 986.32 178.99Q987.11 178.99 987.57 179.41Q988.02 179.83 988.02 180.55Q988.02 181.25 987.57 181.66Q987.11 182.06 986.32 182.06" fill="white" fill-opacity="0.7"/>
<path d="M998.80 197.88Q996.47 197.88 995.04 196.48Q993.62 195.07 993.62 192.60L993.62 189.48Q993.62 187.01 995.04 185.60Q996.47 184.20 998.80 184.20Q1000.36 184.20 1001.52 184.82Q1002.69 185.45 1003.34 186.58Q1003.98 187.70 1003.98 189.24L1003.98 191.59L995.73 191.59L995.73 192.84Q995.73 194.30 996.57 195.16Q997.41 196.01 998.80 196.01Q1000 196.01 1000.78 195.54Q1001.56 195.07 1001.73 194.28L1003.89 194.28Q1003.67 195.94 1002.28 196.91Q1000.89 197.88 998.80 197.88M995.73 189.24L995.73 189.91L1001.87 189.91L1001.87 189.24Q1001.87 187.68 1001.07 186.83Q1000.26 185.98 998.80 185.98Q997.34 185.98 996.53 186.83Q995.73 187.68 995.73 189.24" fill="white" fill-opacity="0.7"/>
<path d="M1013.39 197.88Q1010.99 197.88 1009.55 196.54Q1008.11 195.19 1008.11 192.84L1008.11 189.24Q1008.11 186.89 1009.55 185.54Q1010.99 184.20 1013.39 184.20Q1015.67 184.20 1017.08 185.42Q1018.48 186.65 1018.55 188.76L1016.39 188.76Q1016.32 187.49 1015.53 186.80Q1014.74 186.12 1013.39 186.12Q1011.98 186.12 1011.12 186.92Q1010.27 187.73 1010.27 189.22L1010.27 192.84Q1010.27 194.33 1011.12 195.14Q1011.98 195.96 1013.39 195.96Q1014.74 195.96 1015.53 195.26Q1016.32 194.57 1016.39 193.32L1018.55 193.32Q1018.48 195.43 1017.08 196.66Q1015.67 197.88 1013.39 197.88" fill="white" fill-opacity="0.7"/>
<path d="M1032.76 197.64L1028.92 197.64Q1027.29 197.64 1026.30 196.69Q1025.32 195.74 1025.32 194.16L1025.32 186.41L1021.53 186.41L1021.53 184.44L1025.32 184.44L1025.32 180.72L1027.48 180.72L1027.48 184.44L1032.88 184.44L1032.88 186.41L1027.48 186.41L1027.48 194.16Q1027.48 194.83 1027.88 195.25Q1028.27 195.67 1028.92 195.67L1032.76 195.67" fill="white" fill-opacity="0.7"/>
<path d="M1061.68 197.64L1051.60 197.64L1051.60 180.12L1061.68 180.12L1061.68 182.09L1053.74 182.09L1053.74 187.51L1060.84 187.51L1060.84 189.43L1053.74 189.43L1053.74 195.67L1061.68 195.67" fill="white" fill-opacity="0.7"/>
<path d="M1068.45 197.64L1066.29 197.64L1066.29 184.44L1068.45 184.44L1068.45 186.96L1068.50 186.96Q1068.66 185.69 1069.58 184.94Q1070.49 184.20 1072.02 184.20Q1074.09 184.20 1075.20 185.44Q1076.32 186.67 1076.32 188.95L1076.32 190.08L1074.16 190.08L1074.16 188.95Q1074.16 186.07 1071.35 186.07Q1069.94 186.07 1069.19 186.89Q1068.45 187.70 1068.45 189.24" fill="white" fill-opacity="0.7"/>
<path d="M1084.05 197.88Q1082.01 197.88 1080.81 196.74Q1079.61 195.60 1079.61 193.75Q1079.61 192.53 1080.16 191.62Q1080.71 190.70 1081.70 190.19Q1082.68 189.67 1083.95 189.67L1088.03 189.67L1088.03 188.64Q1088.03 186.07 1085.22 186.07Q1083.98 186.07 1083.21 186.53Q1082.44 186.98 1082.39 187.80L1080.23 187.80Q1080.35 186.24 1081.68 185.22Q1083.02 184.20 1085.22 184.20Q1087.62 184.20 1088.91 185.35Q1090.19 186.50 1090.19 188.57L1090.19 197.64L1088.06 197.64L1088.06 195.24L1088.01 195.24Q1087.82 196.46 1086.78 197.17Q1085.75 197.88 1084.05 197.88M1084.58 196.06Q1086.16 196.06 1087.10 195.29Q1088.03 194.52 1088.03 193.20L1088.03 191.35L1084.19 191.35Q1083.14 191.35 1082.48 191.99Q1081.82 192.62 1081.82 193.68Q1081.82 194.78 1082.55 195.42Q1083.28 196.06 1084.58 196.06" fill="white" fill-opacity="0.7"/>
<path d="M1100.13 197.83L1099.07 197.83Q1096.86 197.83 1095.65 196.84Q1094.44 195.84 1094.44 194.02L1096.60 194.02Q1096.60 194.93 1097.25 195.44Q1097.90 195.96 1099.07 195.96L1100.13 195.96Q1101.33 195.96 1101.99 195.43Q1102.65 194.90 1102.65 193.94Q1102.65 192.24 1101.09 192.02L1097.44 191.50Q1096.10 191.30 1095.35 190.38Q1094.61 189.46 1094.61 187.94Q1094.61 186.22 1095.80 185.23Q1096.98 184.25 1099.07 184.25L1100.13 184.25Q1102.05 184.25 1103.26 185.20Q1104.47 186.14 1104.57 187.68L1102.38 187.68Q1102.34 186.98 1101.72 186.53Q1101.11 186.07 1100.13 186.07L1099.07 186.07Q1097.97 186.07 1097.34 186.58Q1096.72 187.08 1096.72 187.94Q1096.72 189.34 1097.99 189.53L1101.40 190.01Q1104.76 190.49 1104.76 193.94Q1104.76 195.79 1103.55 196.81Q1102.34 197.83 1100.13 197.83" fill="white" fill-opacity="0.7"/>
<path d="M1113.98 197.88Q1111.70 197.88 1110.33 196.52Q1108.96 195.17 1108.96 192.84L1108.96 184.44L1111.12 184.44L1111.12 192.84Q1111.12 194.28 1111.89 195.13Q1112.66 195.98 1113.98 195.98Q1115.32 195.98 1116.10 195.13Q1116.88 194.28 1116.88 192.84L1116.88 184.44L1119.04 184.44L1119.04 192.84Q1119.04 195.17 1117.65 196.52Q1116.26 197.88 1113.98 197.88" fill="white" fill-opacity="0.7"/>
<path d="M1126.05 197.64L1123.89 197.64L1123.89 184.44L1126.05 184.44L1126.05 186.96L1126.10 186.96Q1126.26 185.69 1127.18 184.94Q1128.09 184.20 1129.62 184.20Q1131.69 184.20 1132.80 185.44Q1133.92 186.67 1133.92 188.95L1133.92 190.08L1131.76 190.08L1131.76 188.95Q1131.76 186.07 1128.95 186.07Q1127.54 186.07 1126.79 186.89Q1126.05 187.70 1126.05 189.24" fill="white" fill-opacity="0.7"/>
<path d="M1142.80 197.88Q1140.47 197.88 1139.04 196.48Q1137.62 195.07 1137.62 192.60L1137.62 189.48Q1137.62 187.01 1139.04 185.60Q1140.47 184.20 1142.80 184.20Q1144.36 184.20 1145.52 184.82Q1146.69 185.45 1147.34 186.58Q1147.98 187.70 1147.98 189.24L1147.98 191.59L1139.73 191.59L1139.73 192.84Q1139.73 194.30 1140.57 195.16Q1141.41 196.01 1142.80 196.01Q1144 196.01 1144.78 195.54Q1145.56 195.07 1145.73 194.28L1147.89 194.28Q1147.67 195.94 1146.28 196.91Q1144.89 197.88 1142.80 197.88M1139.73 189.24L1139.73 189.91L1145.87 189.91L1145.87 189.24Q1145.87 187.68 1145.07 186.83Q1144.26 185.98 1142.80 185.98Q1141.34 185.98 1140.53 186.83Q1139.73 187.68 1139.73 189.24" fill="white" fill-opacity="0.7"/>
<path d="M74.37 229.64L72.23 229.64L72.23 212.12L77.63 212.12Q79.19 212.12 80.37 212.76Q81.54 213.39 82.19 214.52Q82.84 215.65 82.84 217.16Q82.84 218.94 81.93 220.21Q81.02 221.48 79.50 221.98L83.08 229.64L80.70 229.64L77.27 222.20L74.37 222.20L74.37 229.64M74.37 214.06L74.37 220.26L77.63 220.26Q78.98 220.26 79.79 219.40Q80.61 218.55 80.61 217.16Q80.61 215.74 79.79 214.90Q78.98 214.06 77.63 214.06" fill="white" fill-opacity="0.7"/>
<path d="M91.60 229.88Q89.27 229.88 87.84 228.48Q86.42 227.07 86.42 224.60L86.42 221.48Q86.42 219.01 87.84 217.60Q89.27 216.20 91.60 216.20Q93.16 216.20 94.32 216.82Q95.49 217.45 96.14 218.58Q96.78 219.70 96.78 221.24L96.78 223.59L88.53 223.59L88.53 224.84Q88.53 226.30 89.37 227.16Q90.21 228.01 91.60 228.01Q92.80 228.01 93.58 227.54Q94.36 227.07 94.53 226.28L96.69 226.28Q96.47 227.94 95.08 228.91Q93.69 229.88 91.60 229.88M88.53 221.24L88.53 221.91L94.67 221.91L94.67 221.24Q94.67 219.68 93.87 218.83Q93.06 217.98 91.60 217.98Q90.14 217.98 89.33 218.83Q88.53 219.68 88.53 221.24" fill="white" fill-opacity="0.7"/>
<path d="M110.99 233.96L108.83 233.96L108.83 230.12L108.88 227.12L108.81 227.12Q108.64 228.39 107.68 229.14Q106.72 229.88 105.23 229.88Q103.24 229.88 102.06 228.56Q100.89 227.24 100.89 224.96L100.89 221.10Q100.89 218.82 102.08 217.51Q103.26 216.20 105.23 216.20Q106.72 216.20 107.68 216.93Q108.64 217.66 108.81 218.96L108.83 218.96L108.83 216.44L110.99 216.44L110.99 233.96M105.95 228.01Q107.30 228.01 108.06 227.17Q108.83 226.33 108.83 224.84L108.83 221.24Q108.83 219.75 108.06 218.91Q107.30 218.07 105.95 218.07Q104.58 218.07 103.82 218.77Q103.05 219.46 103.05 221L103.05 225.08Q103.05 226.62 103.82 227.31Q104.58 228.01 105.95 228.01" fill="white" fill-opacity="0.7"/>
<path d="M120.38 229.88Q118.10 229.88 116.73 228.52Q115.36 227.17 115.36 224.84L115.36 216.44L117.52 216.44L117.52 224.84Q117.52 226.28 118.29 227.13Q119.06 227.98 120.38 227.98Q121.72 227.98 122.50 227.13Q123.28 226.28 123.28 224.84L123.28 216.44L125.44 216.44L125.44 224.84Q125.44 227.17 124.05 228.52Q122.66 229.88 120.38 229.88" fill="white" fill-opacity="0.7"/>
<path d="M134.80 229.88Q132.47 229.88 131.04 228.48Q129.62 227.07 129.62 224.60L129.62 221.48Q129.62 219.01 131.04 217.60Q132.47 216.20 134.80 216.20Q136.36 216.20 137.52 216.82Q138.69 217.45 139.34 218.58Q139.98 219.70 139.98 221.24L139.98 223.59L131.73 223.59L131.73 224.84Q131.73 226.30 132.57 227.16Q133.41 228.01 134.80 228.01QNaN 228.01 136.78 227.54Q137.56 227.07 137.73 226.28L139.89 226.28Q139.67 227.94 138.28 228.91Q136.89 229.88 134.80 229.88M131.73 221.24L131.73 221.91L137.87 221.91L137.87 221.24Q137.87 219.68 137.07 218.83Q136.26 217.98 134.80 217.98Q133.34 217.98 132.53 218.83Q131.73 219.68 131.73 221.24" fill="white" fill-opacity="0.7"/>
<path d="M149.73 229.83L148.67 229.83Q146.46 229.83 145.25 228.84Q144.04 227.84 144.04 226.02L146.20 226.02Q146.20 226.93 146.85 227.44Q147.50 227.96 148.67 227.96L149.73 227.96Q150.93 227.96 151.59 227.43Q152.25 226.90 152.25 225.94Q152.25 224.24 150.69 224.02L147.04 223.50Q145.70 223.30 144.95 222.38Q144.21 221.46 144.21 219.94Q144.21 218.22 145.40 217.23Q146.58 216.25 148.67 216.25L149.73 216.25Q151.65 216.25 152.86 217.20Q154.07 218.14 154.17 219.68L151.98 219.68Q151.94 218.98 151.32 218.53Q150.71 218.07 149.73 218.07L148.67 218.07Q147.57 218.07 146.94 218.58Q146.32 219.08 146.32 219.94Q146.32 221.34 147.59 221.53LNaN 222.01Q154.36 222.49 154.36 225.94Q154.36 227.79 153.15 228.81Q151.94 229.83 149.73 229.83" fill="white" fill-opacity="0.7"/>
<path d="M168.76 229.64L164.92 229.64Q163.29 229.64 162.30 228.69Q161.32 227.74 161.32 226.16L161.32 218.41L157.53 218.41L157.53 216.44L161.32 216.44L161.32 212.72L163.48 212.72L163.48 216.44L168.88 216.44L168.88 218.41L163.48 218.41L163.48 226.16Q163.48 226.83 163.88 227.25Q164.27 227.67 164.92 227.67L168.76 227.67" fill="white" fill-opacity="0.7"/>
<path d="M178.53 229.83L177.47 229.83Q175.26 229.83 174.05 228.84Q172.84 227.84 172.84 226.02LNaN 226.02QNaN 226.93 175.65 227.44Q176.30 227.96 177.47 227.96L178.53 227.96Q179.73 227.96 180.39 227.43Q181.05 226.90 181.05 225.94Q181.05 224.24 179.49 224.02L175.84 223.50Q174.50 223.30 173.75 222.38Q173.01 221.46 173.01 219.94Q173.01 218.22 174.20 217.23Q175.38 216.25 177.47 216.25L178.53 216.25Q180.45 216.25 181.66 217.20Q182.87 218.14 182.97 219.68L180.78 219.68Q180.74 218.98 180.12 218.53Q179.51 218.07 178.53 218.07L177.47 218.07Q176.37 218.07 175.74 218.58Q175.12 219.08 175.12 219.94Q175.12 221.34 176.39 221.53L179.80 222.01Q183.16 222.49 183.16 225.94Q183.16 227.79 181.95 228.81Q180.74 229.83 178.53 229.83" fill="white" fill-opacity="0.7"/>
<path d="M205.65 229.88Q203.61 229.88 202.41 228.74Q201.21 227.60 201.21 225.75Q201.21 224.53 201.76 223.62Q202.31 222.70 203.30 222.19Q204.28 221.67 205.55 221.67L209.63 221.67L209.63 220.64Q209.63 218.07 206.82 218.07Q205.58 218.07 204.81 218.53Q204.04 218.98 203.99 219.80L201.83 219.80Q201.95 218.24 203.28 217.22Q204.62 216.20 206.82 216.20Q209.22 216.20 210.51 217.35Q211.79 218.50 211.79 220.57L211.79 229.64L209.66 229.64L209.66 227.24L209.61 227.24Q209.42 228.46 208.38 229.17Q207.35 229.88 205.65 229.88M206.18 228.06Q207.76 228.06 208.70 227.29Q209.63 226.52 209.63 225.20L209.63 223.35L205.79 223.35Q204.74 223.35 204.08 223.99Q203.42 224.62 203.42 225.68Q203.42 226.78 204.15 227.42Q204.88 228.06 206.18 228.06" fill="white" fill-opacity="0.7"/>
<path d="M221.73 229.83L220.67 229.83Q218.46 229.83 217.25 228.84Q216.04 227.84 216.04 226.02L218.20 226.02Q218.20 226.93 218.85 227.44Q219.50 227.96 220.67 227.96L221.73 227.96Q222.93 227.96 223.59 227.43Q224.25 226.90 224.25 225.94Q224.25 224.24 222.69 224.02L219.04 223.50Q217.70 223.30 216.95 222.38Q216.21 221.46 216.21 219.94Q216.21 218.22 217.40 217.23Q218.58 216.25 220.67 216.25L221.73 216.25Q223.65 216.25 224.86 217.20Q226.07 218.14 226.17 219.68L223.98 219.68Q223.94 218.98 223.32 218.53Q222.71 218.07 221.73 218.07L220.67 218.07Q219.57 218.07 218.94 218.58Q218.32 219.08 218.32 219.94Q218.32 221.34 219.59 221.53LNaN 222.01Q226.36 222.49 226.36 225.94Q226.36 227.79 225.15 228.81Q223.94 229.83 221.73 229.83" fill="white" fill-opacity="0.7"/>
<path d="M246.26 229.64L244.24 229.64L244.24 216.44L246.11 216.44L246.11 218.19L246.16 218.19Q246.28 217.30 246.87 216.75Q247.46 216.20 248.37 216.20Q249.23 216.20 249.83 216.70Q250.43 217.21 250.70 218.07L250.72 218.07Q250.89 217.21 251.48 216.70Q252.06 216.20 252.98 216.20Q254.25 216.20 255 217.15Q255.76 218.10 255.76 219.61L255.76 229.64L253.74 229.64L253.74 219.58Q253.74 218.79 253.36 218.32Q252.98 217.86 252.30 217.86Q251.66 217.86 251.27 218.31Q250.89 218.77 250.89 219.56L250.89 229.64L249.11 229.64L249.11 219.58Q249.11 218.79 248.73 218.32Q248.34 217.86 247.70 217.86Q247.02 217.86 246.64 218.31Q246.26 218.77 246.26 219.56" fill="white" fill-opacity="0.7"/>
<path d="M263.25 229.88Q261.21 229.88 260.01 228.74Q258.81 227.60 258.81 225.75Q258.81 224.53 259.36 223.62Q259.91 222.70 260.90 222.19Q261.88 221.67 263.15 221.67L267.23 221.67L267.23 220.64Q267.23 218.07 264.42 218.07Q263.18 218.07 262.41 218.53Q261.64 218.98 261.59 219.80L259.43 219.80Q259.55 218.24 260.88 217.22Q262.22 216.20 264.42 216.20Q266.82 216.20 268.11 217.35Q269.39 218.50 269.39 220.57L269.39 229.64L267.26 229.64L267.26 227.24L267.21 227.24Q267.02 228.46 265.98 229.17Q264.95 229.88 263.25 229.88M263.78 228.06Q265.36 228.06 266.30 227.29Q267.23 226.52 267.23 225.20L267.23 223.35L263.39 223.35Q262.34 223.35 261.68 223.99Q261.02 224.62 261.02 225.68Q261.02 226.78 261.75 227.42Q262.48 228.06 263.78 228.06" fill="white" fill-opacity="0.7"/>
<path d="M275.97 229.64L273.81 229.64L273.81 216.44L275.97 216.44L275.97 218.96L275.99 218.96Q276.16 217.64 277.07 216.92Q277.98 216.20 279.50 216.20Q281.49 216.20 282.66 217.42Q283.84 218.65 283.84 220.76L283.84 229.64L281.68 229.64L281.68 221.14Q281.68 219.63 280.92 218.83Q280.17 218.02 278.87 218.02Q277.53 218.02 276.75 218.86Q275.97 219.70 275.97 221.24" fill="white" fill-opacity="0.7"/>
<path d="M292.43 229.88Q290.46 229.88 289.28 228.56Q288.09 227.24 288.09 224.98L288.09 221.12Q288.09 218.84 289.26 217.52Q290.44 216.20 292.43 216.20Q293.92 216.20 294.89 216.94Q295.86 217.69 296.06 218.96L296.08 218.96L296.03 215.96L296.03 212.12L298.19 212.12L298.19 229.64L296.03 229.64L296.03 227.12L296.01 227.12Q295.84 228.42 294.88 229.15Q293.92 229.88 292.43 229.88M293.15 228.01Q294.50 228.01 295.26 227.17Q296.03 226.33 296.03 224.84L296.03 221.24Q296.03 219.75 295.26 218.91Q294.50 218.07 293.15 218.07Q291.78 218.07 291.02 218.78Q290.25 219.49 290.25 221.12L290.25 224.96Q290.25 226.57 291.02 227.29Q291.78 228.01 293.15 228.01" fill="white" fill-opacity="0.7"/>
<path d="M306.45 229.88Q304.41 229.88 303.21 228.74Q302.01 227.60 302.01 225.75Q302.01 224.53 302.56 223.62Q303.11 222.70 304.10 222.19Q305.08 221.67 306.35 221.67L310.43 221.67L310.43 220.64Q310.43 218.07 307.62 218.07Q306.38 218.07 305.61 218.53Q304.84 218.98 304.79 219.80L302.63 219.80Q302.75 218.24 304.08 217.22Q305.42 216.20 307.62 216.20Q310.02 216.20 311.31 217.35Q312.59 218.50 312.59 220.57L312.59 229.64L310.46 229.64L310.46 227.24L310.41 227.24Q310.22 228.46 309.18 229.17Q308.15 229.88 306.45 229.88M306.98 228.06Q308.56 228.06 309.50 227.29Q310.43 226.52 310.43 225.20L310.43 223.35L306.59 223.35Q305.54 223.35 304.88 223.99Q304.22 224.62 304.22 225.68Q304.22 226.78 304.95 227.42Q305.68 228.06 306.98 228.06" fill="white" fill-opacity="0.7"/>
<path d="M327.16 229.64L323.32 229.64Q321.69 229.64 320.70 228.69Q319.72 227.74 319.72 226.16L319.72 218.41L315.93 218.41L315.93 216.44L319.72 216.44L319.72 212.72L321.88 212.72L321.88 216.44L327.28 216.44L327.28 218.41L321.88 218.41L321.88 226.16Q321.88 226.83 322.28 227.25Q322.67 227.67 323.32 227.67L327.16 227.67" fill="white" fill-opacity="0.7"/>
<path d="M336.40 229.88Q334.07 229.88 332.64 228.48Q331.22 227.07 331.22 224.60L331.22 221.48Q331.22 219.01 332.64 217.60Q334.07 216.20 336.40 216.20Q337.96 216.20 339.12 216.82Q340.29 217.45 340.94 218.58Q341.58 219.70 341.58 221.24L341.58 223.59L333.33 223.59L333.33 224.84Q333.33 226.30 334.17 227.16Q335.01 228.01 336.40 228.01Q337.60 228.01 338.38 227.54Q339.16 227.07 339.33 226.28L341.49 226.28Q341.27 227.94 339.88 228.91Q338.49 229.88 336.40 229.88M333.33 221.24L333.33 221.91L339.47 221.91L339.47 221.24Q339.47 219.68 338.67 218.83Q337.86 217.98 336.40 217.98Q334.94 217.98 334.13 218.83Q333.33 219.68 333.33 221.24" fill="white" fill-opacity="0.7"/>
<path d="M350.03 229.88Q348.06 229.88 346.88 228.56Q345.69 227.24 345.69 224.98L345.69 221.12Q345.69 218.84 346.86 217.52Q348.04 216.20 350.03 216.20Q351.52 216.20 352.49 216.94Q353.46 217.69 353.66 218.96L353.68 218.96L353.63 215.96L353.63 212.12L355.79 212.12L355.79 229.64L353.63 229.64L353.63 227.12L353.61 227.12Q353.44 228.42 352.48 229.15Q351.52 229.88 350.03 229.88M350.75 228.01Q352.10 228.01 352.86 227.17Q353.63 226.33 353.63 224.84L353.63 221.24Q353.63 219.75 352.86 218.91Q352.10 218.07 350.75 218.07Q349.38 218.07 348.62 218.78Q347.85 219.49 347.85 221.12L347.85 224.96Q347.85 226.57 348.62 227.29Q349.38 228.01 350.75 228.01" fill="white" fill-opacity="0.7"/>
<path d="M385.72 229.64L374.44 229.64L374.44 227.67L379.12 227.67L379.12 218.41L374.92 218.41L374.92 216.44L381.28 216.44L381.28 227.67L385.72 227.67L385.72 229.64M379.96 214.06Q379.17 214.06 378.71 213.66Q378.26 213.25 378.26 212.55Q378.26 211.83 378.71 211.41Q379.17 210.99 379.96 210.99Q380.75 210.99 381.21 211.41Q381.66 211.83 381.66 212.55Q381.66 213.25 381.21 213.66Q380.75 214.06 379.96 214.06" fill="white" fill-opacity="0.7"/>
<path d="M391.17 229.64L389.01 229.64L389.01 216.44L391.17 216.44L391.17 218.96L391.19 218.96Q391.36 217.64 392.27 216.92Q393.18 216.20 394.70 216.20Q396.69 216.20 397.86 217.42Q399.04 218.65 399.04 220.76L399.04 229.64L396.88 229.64L396.88 221.14Q396.88 219.63 396.12 218.83Q395.37 218.02 394.07 218.02Q392.73 218.02 391.95 218.86Q391.17 219.70 391.17 221.24" fill="white" fill-opacity="0.7"/>
<path d="M422.90 229.88Q420.50 229.88 419.10 228.54Q417.71 227.19 417.71 224.84L417.71 216.92Q417.71 214.57 419.10 213.22Q420.50 211.88 422.90 211.88Q425.25 211.88 426.64 213.24Q428.03 214.59 428.03 216.92L425.87 216.92Q425.87 215.43 425.09 214.63Q424.31 213.82 422.90 213.82Q421.48 213.82 420.68 214.62Q419.87 215.41 419.87 216.90L419.87 224.84Q419.87 226.33 420.68 227.14Q421.48 227.96 422.90 227.96Q424.31 227.96 425.09 227.14Q425.87 226.33 425.87 224.84L425.87 222.44L422.32 222.44L422.32 220.47L428.03 220.47L428.03 224.84Q428.03 227.17 426.64 228.52Q425.25 229.88 422.90 229.88" fill="white" fill-opacity="0.7"/>
<path d="M436.74 229.64L432.21 229.64L432.21 212.12L436.74 212.12Q438.45 212.12 439.68 212.77Q440.92 213.42 441.60 214.59Q442.29 215.77 442.29 217.38L442.29 224.36Q442.29 225.97 441.60 227.16Q440.92 228.34 439.68 228.99Q438.45 229.64 436.74 229.64M434.37 214.04L434.37 227.72L436.74 227.72Q438.33 227.72 439.23 226.83Q440.13 225.94 440.13 224.36L440.13 217.38Q440.13 215.82 439.23 214.93Q438.33 214.04 436.74 214.04" fill="white" fill-opacity="0.7"/>
<path d="M448.77 229.64L446.61 229.64L446.61 212.12L452.25 212.12Q454.70 212.12 456.15 213.52Q457.60 214.93 457.60 217.28Q457.60 219.63 456.15 221.04Q454.70 222.44 452.25 222.44L448.77 222.44L448.77 229.64M448.77 214.06L448.77 220.50L452.25 220.50Q453.66 220.50 454.52 219.62Q455.37 218.74 455.37 217.28Q455.37 215.79 454.52 214.93Q453.66 214.06 452.25 214.06" fill="white" fill-opacity="0.7"/>
<path d="M463.17 229.64L461.03 229.64L461.03 212.12L466.43 212.12Q467.99 212.12 469.17 212.76Q470.34 213.39 470.99 214.52Q471.64 215.65 471.64 217.16Q471.64 218.94 470.73 220.21Q469.82 221.48 468.30 221.98L471.88 229.64L469.50 229.64L466.07 222.20L463.17 222.20L463.17 229.64M463.17 214.06L463.17 220.26L466.43 220.26Q467.78 220.26 468.59 219.40Q469.41 218.55 469.41 217.16Q469.41 215.74 468.59 214.90Q467.78 214.06 466.43 214.06" fill="white" fill-opacity="0.7"/>
<path d="M76.11 136.06L66.42 136.06L84.56 65.98L97.14 65.98L115.18 136.06L105.49 136.06L101.07 117.82L80.53 117.82L76.11 136.06M87.54 88.92L82.45 109.95L99.15 109.95L94.16 89.02Q92.72 83.26 91.86 79.23Q90.99 75.20 90.80 73.76Q90.61 75.20 89.74 79.23Q88.88 83.26 87.54 88.92M146.86 136.06L128.05 136.06L128.05 65.98L146.86 65.98Q153.68 65.98 158.72 68.62Q163.76 71.26 166.54 76.01Q169.33 80.76 169.33 87.20L169.33 114.75Q169.33 121.18 166.54 125.98Q163.76 130.78 158.72 133.42Q153.68 136.06 146.86 136.06M137.55 74.43L137.55 127.61L146.86 127.61Q152.91 127.61 156.37 124.16Q159.82 120.70 159.82 114.75L159.82 87.20Q159.82 81.24 156.37 77.84Q152.91 74.43 146.86 74.43L137.55 74.43M210.80 136.06L201.30 136.06L201.30 110.04L180.27 65.98L190.35 65.98L203.31 93.63Q204.46 96.12 205.18 98.14Q205.90 100.16 206.10 101.02Q206.38 100.16 207.10 98.14Q207.82 96.12 209.07 93.63L221.94 65.98L231.73 65.98L210.80 110.04L210.80 136.06M284.91 136.06L244.11 136.06L244.11 65.98L284.91 65.98L284.91 74.52L253.52 74.52L253.52 95.36L281.55 95.36L281.55 103.61L253.52 103.61L253.52 127.52L284.91 127.52L284.91 136.06M309.58 136.06L300.66 136.06L300.66 65.98L312.94 65.98L333.87 125.12Q333.58 122.62 333.34 118.92Q333.10 115.23 332.96 111.24Q332.82 107.26 332.82 103.71L332.82 65.98L341.84 65.98L341.84 136.06L329.46 136.06L308.72 76.92Q308.91 79.42 309.10 83.02Q309.30 86.62 309.44 90.56Q309.58 94.49 309.58 97.95L309.58 136.06M434.86 136.06L416.05 136.06L416.05 65.98L434.86 65.98Q441.68 65.98 446.72 68.62Q451.76 71.26 454.54 76.01Q457.33 80.76 457.33 87.20L457.33 114.75Q457.33 121.18 454.54 125.98Q451.76 130.78 446.72 133.42Q441.68 136.06 434.86 136.06M425.55 74.43L425.55 127.61L434.86 127.61Q440.91 127.61 444.37 124.16Q447.82 120.70 447.82 114.75L447.82 87.20Q447.82 81.24 444.37 77.84Q440.91 74.43 434.86 74.43L425.55 74.43M479.31 136.06L469.62 136.06L487.76 65.98L500.34 65.98L518.38 136.06L508.69 136.06L504.27 117.82L483.73 117.82L479.31 136.06M490.74 88.92L485.65 109.95L502.35 109.95L497.36 89.02Q495.92 83.26 495.06 79.23Q494.19 75.20 NaN 73.76Q493.81 75.20 492.94 79.23Q492.08 83.26 490.74 88.92M556.40 136.06L546.90 136.06L546.90 74.62L527.89 74.62L527.89 65.98L575.31 65.98L575.31 74.62L556.40 74.62L556.40 136.06M594.51 136.06L584.82 136.06L602.96 65.98L615.54 65.98L633.58 136.06L623.89 136.06L619.47 117.82L598.93 117.82L594.51 136.06M605.94 88.92L600.85 109.95L617.55 109.95L612.56 89.02Q611.12 83.26 610.26 79.23Q609.39 75.20 609.20 73.76Q609.01 75.20 608.14 79.23Q607.28 83.26 605.94 88.92M655.95 136.06L646.45 136.06L646.45 65.98L669.20 65.98Q675.92 65.98 680.82 68.57Q685.71 71.16 688.40 75.82Q691.09 80.48 691.09 86.91Q691.09 93.24 688.40 97.90Q685.71 102.56 680.77 105.15Q675.82 107.74 669.20 107.74L655.95 107.74L655.95 136.06M655.95 74.43L655.95 99.29L669.20 99.29Q674.77 99.29 678.03 95.88Q681.30 92.48 681.30 86.91Q681.30 81.24 678.03 77.84Q674.77 74.43 669.20 74.43L655.95 74.43M713.55 136.06L704.14 136.06L704.14 65.98L725.84 65.98Q732.27 65.98 737.07 68.52Q741.87 71.07 744.56 75.63Q747.25 80.19 747.25 86.33Q747.25 93.44 743.65 98.52Q740.05 103.61 734.10 105.72L748.21 136.06L737.74 136.06L724.40 106.78L713.55 106.78L713.55 136.06M713.55 74.43L713.55 98.33L725.84 98.33Q731.22 98.33 734.34 95.07Q737.46 91.80 737.46 86.43Q737.46 80.96 734.29 77.69Q731.12 74.43 725.84 74.43L713.55 74.43MNaN 137.02Q772.40 137.02 766.83 131.45Q761.26 125.88 761.26 115.71L761.26 86.24Q761.26 76.16 766.83 70.59Q772.40 65.02 NaN 65.02Q791.60 65.02 797.17 70.54Q802.74 76.06 802.74 86.24L802.74 115.71Q802.74 125.88 797.17 131.45Q791.60 137.02 NaN 137.02MNaN 128.57Q787.38 128.57 790.30 125.50Q793.23 122.43 793.23 116.67L793.23 85.28Q793.23 79.61 790.35 76.54Q787.47 73.47 NaN 73.47Q776.53 73.47 773.65 76.54Q770.77 79.61 770.77 85.28L770.77 116.67Q770.77 122.43 773.70 125.50Q776.62 128.57 NaN 128.57M844.40 136.06L834.90 136.06L834.90 74.62L815.89 74.62L815.89 65.98L863.31 65.98L863.31 74.62L844.40 74.62L844.40 136.06M918.51 136.06L877.71 136.06L877.71 65.98L918.51 65.98L918.51 74.52L887.12 74.52L887.12 95.36L915.15 95.36L915.15 103.61L887.12 103.61L887.12 127.52L918.51 127.52L918.51 136.06M955.57 137.02Q945.87 137.02 940.16 131.60Q934.45 126.17 934.45 116.67L934.45 85.28Q934.45 75.87 940.16 70.44Q945.87 65.02 955.57 65.02Q965.17 65.02 970.88 70.49Q976.59 75.96 976.59 85.28L967.09 85.28Q967.09 79.61 964.02 76.54Q960.94 73.47 955.57 73.47Q950.10 73.47 947.02 76.54Q943.95 79.61 943.95 85.28L943.95 116.67Q943.95 122.43 947.02 125.50Q950.10 128.57 955.57 128.57Q960.94 128.57 964.02 125.50Q967.09 122.43 967.09 116.67L976.59 116.67Q976.59 126.08 970.88 131.55Q965.17 137.02 955.57 137.02M1017.20 136.06L1007.70 136.06L1007.70 74.62L988.69 74.62L988.69 65.98L1036.11 65.98L1036.11 74.62L1017.20 74.62L1017.20 136.06M1089.10 136.06L1050.90 136.06L1050.90 127.42L1065.20 127.42L1065.20 74.62L1050.90 74.62L1050.90 65.98L1089.10 65.98L1089.10 74.62L1074.80 74.62L1074.80 127.42L1089.10 127.42L1089.10 136.06M1127.60 137.02QNaN 137.02 1112.43 131.45Q1106.86 125.88 1106.86 115.71L1106.86 86.24Q1106.86 76.16 1112.43 70.59QNaN 65.02 1127.60 65.02Q1137.20 65.02 1142.77 70.54Q1148.34 76.06 1148.34 86.24L1148.34 115.71Q1148.34 125.88 1142.77 131.45Q1137.20 137.02 1127.60 137.02M1127.60 128.57Q1132.98 128.57 1135.90 125.50Q1138.83 122.43 1138.83 116.67L1138.83 85.28Q1138.83 79.61 1135.95 76.54Q1133.07 73.47 1127.60 73.47Q1122.13 73.47 1119.25 76.54Q1116.37 79.61 1116.37 85.28L1116.37 116.67Q1116.37 122.43 1119.30 125.50Q1122.22 128.57 1127.60 128.57M1173.58 136.06L1164.66 136.06L1164.66 65.98L1176.94 65.98L1197.87 125.12Q1197.58 122.62 1197.34 118.92Q1197.10 115.23 1196.96 111.24Q1196.82 107.26 1196.82 103.71L1196.82 65.98L1205.84 65.98L1205.84 136.06L1193.46 136.06L1172.72 76.92Q1172.91 79.42 1173.10 83.02Q1173.30 86.62 1173.44 90.56Q1173.58 94.49 1173.58 97.95L1173.58 136.06M1243.18 137.02Q1232.82 137.02 1226.67 131.60Q1220.53 126.17 1220.53 116.67L1230.03 116.67Q1230.03 122.24 1233.58 125.40Q1237.14 128.57 1243.18 128.57Q1248.94 128.57 1252.35 125.36Q1255.76 122.14 1255.76 116.76Q1255.76 112.73 1253.55 109.71Q1251.34 106.68 1247.31 105.63L1236.94 102.84Q1230.13 100.92 1226.14 95.88Q1222.16 90.84 1222.16 83.93Q1222.16 78.27 1224.70 74Q1227.25 69.72 1231.86 67.37Q1236.46 65.02 1242.51 65.02Q1248.66 65.02 1253.31 67.37Q1257.97 69.72 1260.56 73.95Q1263.15 78.17 1263.15 83.74L1253.74 83.74Q1253.74 79.13 1250.62 76.25Q1247.50 73.37 1242.51 73.37Q1237.52 73.37 1234.50 76.25Q1231.47 79.13 1231.47 83.74Q1231.47 87.48 1233.49 90.03Q1235.50 92.57 1239.15 93.63L1249.81 96.51Q1257.01 98.43 1261.04 103.85Q1265.07 109.28 1265.07 116.76Q1265.07 122.91 1262.38 127.47Q1259.70 132.03 1254.75 134.52Q1249.81 137.02 1243.18 137.02M1321.71 136.06L1280.91 136.06L1280.91 65.98L1321.71 65.98L1321.71 74.52L1290.32 74.52L1290.32 95.36L1318.35 95.36L1318.35 103.61L1290.32 103.61L1290.32 127.52L1321.71 127.52L1321.71 136.06M1347.15 136.06L1337.74 136.06L1337.74 65.98L1359.44 65.98Q1365.87 65.98 1370.67 68.52Q1375.47 71.07 1378.16 75.63Q1380.85 80.19 1380.85 86.33Q1380.85 93.44 1377.25 98.52Q1373.65 103.61 1367.70 105.72L1381.81 136.06L1371.34 136.06L1358 106.78L1347.15 106.78L1347.15 136.06M1347.15 74.43L1347.15 98.33L1359.44 98.33Q1364.82 98.33 1367.94 95.07Q1371.06 91.80 1371.06 86.43Q1371.06 80.96 1367.89 77.69Q1364.72 74.43 1359.44 74.43L1347.15 74.43M1421.94 136.06L1409.17 136.06L1391.22 65.98L1401.01 65.98L1412.62 113.21Q1413.78 117.72 1414.59 121.90Q1415.41 126.08 1415.79 128.28Q1416.08 126.08 1416.99 121.85Q1417.90 117.63 1418.96 113.12L1430.19 65.98L1439.98 65.98L1421.94 136.06M1492.30 136.06L1454.10 136.06L1454.10 127.42L1468.40 127.42L1468.40 74.62L1454.10 74.62L1454.10 65.98L1492.30 65.98L1492.30 74.62L1478 74.62L1478 127.42L1492.30 127.42L1492.30 136.06M1531.57 137.02Q1521.87 137.02 1516.16 131.60Q1510.45 126.17 1510.45 116.67L1510.45 85.28Q1510.45 75.87 1516.16 70.44Q1521.87 65.02 1531.57 65.02Q1541.17 65.02 1546.88 70.49Q1552.59 75.96 1552.59 85.28L1543.09 85.28Q1543.09 79.61 1540.02 76.54Q1536.94 73.47 1531.57 73.47Q1526.10 73.47 1523.02 76.54Q1519.95 79.61 1519.95 85.28L1519.95 116.67Q1519.95 122.43 1523.02 125.50Q1526.10 128.57 1531.57 128.57Q1536.94 128.57 1540.02 125.50Q1543.09 122.43 1543.09 116.67L1552.59 116.67Q1552.59 126.08 1546.88 131.55Q1541.17 137.02 1531.57 137.02M1609.71 136.06L1568.91 136.06L1568.91 65.98L1609.71 65.98L1609.71 74.52L1578.32 74.52L1578.32 95.36L1606.35 95.36L1606.35 103.61L1578.32 103.61L1578.32 127.52L1609.71 127.52" fill="url(#paint2_linear_0_1)"/>
<g id="Group 1">
<rect id="Rectangle 1" x="26" y="168" width="12" height="184" rx="5" fill="url(#paint3_linear_0_1)" fill-opacity="0.9"/>
</g>
<g id="Group 1_2">
<rect id="Rectangle 2" x="26" y="38" width="12" height="119" rx="5" fill="url(#paint4_linear_0_1)" fill-opacity="0.9"/>
</g>
<ellipse id="Ellipse 1" cx="148.5" cy="573" rx="215.5" ry="214" fill="url(#paint5_linear_0_1)" fill-opacity="0.4"/>
<rect id="Rectangle 3" x="1229" y="48" width="300" height="300" rx="25" fill="#FFFBFB" fill-opacity="0.9"/>
<g id="placeholder-logo"><g transform="translate(1229,48) translate(0.0,60.0) scale(1.2000)"><g fill="#666666">
  <path d="m88.05,27.65c-3.15,4 -3.2,51.2 -0.05,54.35c2.75,2.75 71.7,3.15 74.45,0.45c2.85,-2.9 2.3,-53.85 -0.65,-55.9c-1.95,-1.35 -7.15,-1.55 -36.95,-1.55l-34.7,0l-2.1,2.65zm69.45,3.35c0.65,0 1,8.6 1,23.75l0,23.75l-33,0l-33,0l-0.25,-23c-0.15,-12.6 -0.1,-23.45 0.15,-24.1c0.35,-0.85 8.9,-1.05 32.25,-0.75c17.55,0.2 32.3,0.35 32.85,0.35z"/>
  <path d="m99.15,37.3c-6.85,7.35 4.25,17.35 11.4,10.25c1.35,-1.35 2.45,-3.65 2.45,-5.05c0,-6.45 -9.35,-9.95 -13.85,-5.2z"/>
  <path d="m135,42.5c-0.7,0.85 -5.25,5.15 -10.1,9.6l-8.85,8.1l-3.2,-3.2l-3.15,-3.15l-6.35,6.3c-5.55,5.5 -6.35,6.75 -6.35,10.05l0,3.8l28.5,0l28.5,0l0,-8.6l0,-8.55l-8.15,-7.7c-9.35,-8.85 -9.15,-8.7 -10.85,-6.65zm7.25,15.2c0.95,0.9 1.75,2.9 1.75,4.45c6.35,-5.05 4.75,-7.15 4.9,-11.55c0.95,0 0,0 0,0l-6.65,7.1z"/>
  <path d="m53.65,110.75c0.1,4.8 0.45,8.65 0.75,8.5c0.35,-0.15 1.3,-0.25 2.1,-0.25c1.1,0 1.5,-1.2 1.5,-4.75l0,-4.75l3.25,5c4.9,7.5 6.2,6.75 6.55,-3.75c0.25,-8.15 0.15,-8.75 -1.7,-8.75c-1.65,0 -2.05,0.8 -2.3,4.75l-0.3,4.75l-2.8,-4.75c-4.85,-8.25 -7.25,-6.9 -7.05,4z"/>
  <path d="m91,108.9c0,9.65 0.3,10.1 6.1,10.1c5.8,0 7.15,-2.65 1.65,-3.2l-3.25,-0.3l-0.3,-6.75c-0.25,-5.95 -0.55,-6.75 -2.25,-6.75c-1.75,0 -1.95,0.7 -1.95,6.9z"/>
  <path d="m151,102.45c0,0.25 1,2.15 2.25,4.2c1.2,2.1 2.45,5.8 2.75,8.25c0.65,5.9 4,6.95 4,1.25c0.05,-2.1 1.25,-5.85 2.95,-8.9l2.9,-5.25l-2.5,0c-1.8,0 -2.8,0.85 -3.75,3.1l-1.3,3.05l-1.25,-3.05c-1.1,-2.6 -6.05,-4.8 -6.05,-2.65z"/>
  <path d="m191,107.45c0,9.05 3.4,8.85 4.25,-0.2c0.45,-5 0.35,-5.25 -1.9,-5.25c-2.2,0 -2.35,0.4 -2.35,5.45z"/>
  <path d="m180.8,104.75c-1.3,5.35 0.65,13.6 3.45,14.35c2.3,0.6 2.75,0.4 2.75,-1.2c0,-1.05 -0.45,-1.9 -1,-1.9c-0.55,0 -1,-1.6 -1,-3.5c0,-1.95 0.45,-3.5 1,-3.5c0.55,0 1,-0.7 1,-1.5c0,-0.85 -0.45,-1.5 -1,-1.5c-0.55,0 -1,-0.7 -1,-1.5c0,-2.1 -3.65,-1.9 -4.2,0.25z"/>
  <path d="m71.55,106.55c-2.2,2.25 -2.05,9.7 0.3,11.8c4.5,4.1 10.15,0.75 10.15,-6.1c0,-4.85 -2,-7.25 -6,-7.25c-1.55,0 -3.55,0.7 -4.45,1.55zm6.25,5.8c0.25,3.05 0,3.65 -1.6,3.65c-2.3,0 -3.25,-2.65 -2.05,-5.85c1.25,-3.35 3.3,-2.1 3.65,2.2z"/>
  <path d="m105.75,106.1c-2.5,1.45 -2.45,9.95 0.1,12.25c4.3,3.9 10.15,0.35 10.15,-6.2c0,-6 -5.15,-9.05 -10.25,-6.05zm6.05,6.25c0.25,3.05 0,3.65 -1.6,3.65c-2.3,0 -3.25,-2.65 -2.05,-5.85c1.25,-3.35 3.3,-2.1 3.65,2.2z"/>
  <path d="m119.2,106.2c-3.8,3.8 -0.4,12.55 4.4,11.35c1.9,-0.45 2.45,-0.3 2.15,0.65c-0.25,0.7 -1.55,1.2 -2.85,1.1c-4.05,-0.3 -5.35,0.45 -3.85,2.25c0.85,1.05 2.6,1.45 5.35,1.25l4.1,-0.3l0.3,-8.75l0.3,-8.75l-4.35,0c-2.4,0 -4.9,0.55 -5.55,1.2zm6.6,4.45c0.4,2.85 -2.15,4.85 -3.75,2.95c-0.9,-1.1 -0.9,-2 -0.05,-3.6c1.35,-2.5 3.4,-2.15 3.8,0.65z"/>
  <path d="m133.55,106.55c-2.2,2.25 -2.05,9.7 0.3,11.8c4.5,4.1 10.15,0.75 10.15,-6.1c0,-4.85 -2,-7.25 -6,-7.25c-1.55,0 -3.55,0.7 -4.45,1.55zm6.25,5.8c0.25,3.05 0,3.65 -1.6,3.65c-2.3,0 -3.25,-2.65 -2.05,-5.85c1.25,-3.35 3.3,-2.1 3.65,2.2z"/>
  <path d="m167.65,106.85c-3.9,4.3 -0.75,13.15 4.7,13.15c2.4,0 5.65,-2.75 5.65,-4.85c0,-1.4 -2.65,-1.55 -3.5,-0.15c-0.95,1.55 -4.5,1.15 -4.5,-0.5c0,-1.1 1.1,-1.5 4,-1.5c3.15,0 4,-0.35 4,-1.8c0,-5.3 -6.85,-8.25 -10.35,-4.35z"/>
  <path d="m191,117.5c0,2.15 0.4,2.6 2.25,2.3c1.5,-0.2 2.25,-1 2.25,-2.3c0,-1.3 -0.75,-2.1 -2.25,-2.3c-1.85,-0.3 -2.25,0.15 -2.25,2.3z"/>
 </g></g></g>
</g>
<defs>
<linearGradient id="paint0_linear_0_1" x1="0" y1="198" x2="1584" y2="198" gradientUnits="userSpaceOnUse">
<stop stop-color="#3D052C"/>
<stop offset="1"/>
</linearGradient>
<linearGradient id="paint1_linear_0_1" x1="323" y1="-224" x2="323" y2="352" gradientUnits="userSpaceOnUse">
<stop stop-color="#28F6F2" stop-opacity="0.4"/>
<stop offset="1" stop-color="#17908E" stop-opacity="0.7"/>
</linearGradient>
<linearGradient id="paint2_linear_0_1" x1="148.5" y1="38" x2="148.5" y2="140" gradientUnits="userSpaceOnUse">
<stop stop-color="white"/>
<stop offset="1" stop-color="#999999"/>
</linearGradient>
<linearGradient id="paint3_linear_0_1" x1="38" y1="260" x2="26" y2="260" gradientUnits="userSpaceOnUse">
<stop stop-color="#D9D9D9"/>
<stop offset="1" stop-color="#737373"/>
</linearGradient>
<linearGradient id="paint4_linear_0_1" x1="38" y1="97.5" x2="26" y2="97.5" gradientUnits="userSpaceOnUse">
<stop stop-color="#D9D9D9"/>
<stop offset="1" stop-color="#737373"/>
</linearGradient>
<linearGradient id="paint5_linear_0_1" x1="27.5" y1="434.5" x2="148.5" y2="787" gradientUnits="userSpaceOnUse">
<stop stop-color="#2E21BC"/>
<stop offset="1" stop-color="#150F56"/>
</linearGradient>
<clipPath id="clip0_0_1">
<rect width="1584" height="396" fill="white"/>
</clipPath>
</defs>
</svg>
